<svg xmlns="http://www.w3.org/2000/svg" width="401.4" height="386.116" viewBox="0 0 401.4 386.116"><g transform="translate(-43.822 -43.449)"><path d="M428.606,248.638,252.713,424.531a17.15,17.15,0,0,1-24.276,0L82.223,278.318,52.543,248.638a17.15,17.15,0,0,1,0-24.276l18.571-18.573L228.436,48.466a17.192,17.192,0,0,1,24.276,0L410.035,205.789l18.571,18.573A17.188,17.188,0,0,1,428.606,248.638Z" transform="translate(3.951 0)" fill="#fff"/><path d="M417.359,230.953a6.335,6.335,0,0,1-1.887,4.545L326.559,324.41l-86.981,87a6.47,6.47,0,0,1-9.093,0L120.556,301.487l-2.059-2.059-.771-.773-2.424-2.424-3.646-3.644-1.135-1.137-2.36-2.358L54.569,235.5a6.42,6.42,0,0,1,0-9.093L125.4,155.571l6.07-6.068.108-.108h.021l.3-.321.085-.085.793-.773a.071.071,0,0,0,.023-.044l.534-.537.472-.47.215-.215,2.637-2.637,12.03-12.03.193-.193,11.6-11.6,70-70a6.475,6.475,0,0,1,9.093,0l70,70,11.6,11.6.172.17L333.4,144.314a.02.02,0,0,0,.021.021l2.6,2.617.686.686.557.537c0,.023.023.023.023.044l.75.729.149.149.28.28v.021l.108.108,76.9,76.9A6.378,6.378,0,0,1,417.359,230.953Z" transform="translate(9.495 5.547)" fill="#00adee"/><g transform="translate(203.087 102.564)"><path d="M179.418,109.122a25.749,25.749,0,0,1-36.352,19.217,25.3,25.3,0,0,1-8.654-6.629,25.723,25.723,0,1,1,45.006-12.588Z" transform="translate(-112.58 -64.127)" fill="#fcee21"/><g transform="translate(34.093)"><path d="M143.407,83.07h0a.926.926,0,0,1-.767-1.059l1.483-9.25A.928.928,0,0,1,145.182,72h0a.926.926,0,0,1,.764,1.059l-1.483,9.25A.924.924,0,0,1,143.407,83.07Z" transform="translate(-131.288 -71.983)" fill="#fcee21"/><path d="M137.931,117.218h0a.926.926,0,0,1-.764-1.059l1.481-9.25a.929.929,0,0,1,1.059-.767h0a.928.928,0,0,1,.767,1.059l-1.483,9.25A.928.928,0,0,1,137.931,117.218Z" transform="translate(-137.154 -35.386)" fill="#fcee21"/></g><g transform="translate(32.849 0.219)"><path d="M139.423,83.121h0a.926.926,0,0,1-1.081-.733l-1.771-9.2a.93.93,0,0,1,.733-1.084h0a.927.927,0,0,1,1.081.733l1.769,9.2A.926.926,0,0,1,139.423,83.121Z" transform="translate(-136.554 -72.089)" fill="#fcee21"/><path d="M145.958,117.081h0a.927.927,0,0,1-1.081-.733l-1.771-9.2a.927.927,0,0,1,.733-1.081h0a.924.924,0,0,1,1.081.731l1.769,9.2A.926.926,0,0,1,145.958,117.081Z" transform="translate(-129.55 -35.692)" fill="#fcee21"/></g><g transform="translate(19.706 5.237)"><path d="M136.419,84.266h0a.926.926,0,0,1-1.268-.319l-4.811-8.038a.926.926,0,0,1,.319-1.268h0a.926.926,0,0,1,1.266.319L136.736,83A.926.926,0,0,1,136.419,84.266Z" transform="translate(-130.21 -74.511)" fill="#fcee21"/><path d="M154.174,113.945h0a.926.926,0,0,1-1.268-.319l-4.811-8.038a.93.93,0,0,1,.319-1.268h0a.926.926,0,0,1,1.268.319l4.808,8.038A.928.928,0,0,1,154.174,113.945Z" transform="translate(-111.18 -42.705)" fill="#fcee21"/></g><g transform="translate(9.072 14.448)"><path d="M133.985,86.372h0a.928.928,0,0,1-1.3.135l-7.27-5.911a.928.928,0,0,1-.135-1.3h0a.93.93,0,0,1,1.3-.135l7.27,5.911A.926.926,0,0,1,133.985,86.372Z" transform="translate(-125.077 -78.957)" fill="#fcee21"/><path d="M160.821,108.186h0a.928.928,0,0,1-1.3.135l-7.27-5.911a.928.928,0,0,1-.135-1.3h0a.928.928,0,0,1,1.3-.133l7.268,5.909A.924.924,0,0,1,160.821,108.186Z" transform="translate(-96.316 -55.577)" fill="#fcee21"/></g><g transform="translate(2.228 26.738)"><path d="M132.421,89.183h0a.927.927,0,0,1-1.175.57l-8.852-3.066a.927.927,0,0,1-.57-1.175h0A.926.926,0,0,1,123,84.94l8.852,3.066A.926.926,0,0,1,132.421,89.183Z" transform="translate(-121.774 -84.89)" fill="#fcee21"/><path d="M165.1,100.5h0a.928.928,0,0,1-1.175.57l-8.852-3.066a.927.927,0,0,1-.572-1.175h0a.929.929,0,0,1,1.177-.572l8.852,3.066A.93.93,0,0,1,165.1,100.5Z" transform="translate(-86.752 -72.757)" fill="#fcee21"/></g><g transform="translate(0 39.368)"><path d="M131.914,92.434h0a.929.929,0,0,1-.909.938l-9.368.145a.926.926,0,0,1-.938-.907h0a.928.928,0,0,1,.909-.938l9.368-.147A.929.929,0,0,1,131.914,92.434Z" transform="translate(-120.698 -90.409)" fill="#fcee21"/><path d="M166.492,91.9h0a.923.923,0,0,1-.909.936l-9.366.147a.928.928,0,0,1-.939-.909h0a.928.928,0,0,1,.909-.939l9.368-.145A.924.924,0,0,1,166.492,91.9Z" transform="translate(-83.638 -90.986)" fill="#fcee21"/></g><g transform="translate(2.659 25.553)"><path d="M132.521,97.244h0a.929.929,0,0,1-.535,1.193l-8.753,3.342a.926.926,0,0,1-1.191-.535h0a.927.927,0,0,1,.532-1.193l8.753-3.34A.927.927,0,0,1,132.521,97.244Z" transform="translate(-121.982 -71.1)" fill="#fcee21"/><path d="M164.831,84.911h0A.929.929,0,0,1,164.3,86.1l-8.751,3.34a.927.927,0,0,1-1.193-.532h0a.929.929,0,0,1,.534-1.193l8.751-3.34A.927.927,0,0,1,164.831,84.911Z" transform="translate(-87.354 -84.318)" fill="#fcee21"/></g><g transform="translate(9.883 13.481)"><path d="M134.171,101.448h0a.926.926,0,0,1-.093,1.3L127,108.884a.924.924,0,0,1-1.3-.093h0a.927.927,0,0,1,.093-1.3l7.081-6.132A.926.926,0,0,1,134.171,101.448Z" transform="translate(-125.469 -54.227)" fill="#fcee21"/><path d="M160.315,78.808h0a.928.928,0,0,1-.093,1.3l-7.083,6.132a.927.927,0,0,1-1.3-.093h0a.927.927,0,0,1,.1-1.3l7.081-6.132A.927.927,0,0,1,160.315,78.808Z" transform="translate(-97.45 -78.491)" fill="#fcee21"/></g><g transform="translate(20.799 4.607)"><path d="M136.668,104.539h0a.926.926,0,0,1,.356,1.258l-4.556,8.185a.927.927,0,0,1-1.258.356h0a.924.924,0,0,1-.356-1.255l4.556-8.185A.93.93,0,0,1,136.668,104.539Z" transform="translate(-130.738 -41.824)" fill="#fcee21"/><path d="M153.49,74.323h0a.925.925,0,0,1,.358,1.255l-4.558,8.185a.925.925,0,0,1-1.255.358h0a.927.927,0,0,1-.358-1.255l4.558-8.185A.925.925,0,0,1,153.49,74.323Z" transform="translate(-112.707 -74.207)" fill="#fcee21"/></g></g><path d="M244.489,128.555H149.907a.392.392,0,0,1,.075-.025l8.465-2.068a3.208,3.208,0,0,1,3.3-3.033c.037,0,.07.008.108.01a6.047,6.047,0,0,1,9.76-2.938,7.179,7.179,0,0,1,6.387-1.409,6.928,6.928,0,0,1,.872.288,8.244,8.244,0,0,1,.553-.947,8.623,8.623,0,0,1,7.444-3.816,9.12,9.12,0,0,1,.959.087l.058-.081a5.887,5.887,0,0,1,.58-.661,6,6,0,0,1,4.444-1.746,6.1,6.1,0,0,1,.918.1,6.491,6.491,0,0,1,6.244-8.886,6.67,6.67,0,0,1,1.181.149,7.892,7.892,0,0,1,7.34-4.4,7.809,7.809,0,0,1,4.552,1.633,7.389,7.389,0,0,1,.9.806l.017.017a6.19,6.19,0,0,1,8.422,5.971,5.8,5.8,0,0,1-.058.661v.019a6.866,6.866,0,0,1,.8-.019c.166,0,.331.015.493.031.039,0,.079.008.118.015a6.441,6.441,0,0,1,.64.1c.058.01.116.023.172.037l.017,0c.1.025.207.052.307.079.05.014.1.029.151.046l.1.031.1.033c.112.039.222.081.331.122.052.021.1.041.155.064l.128.056a7.252,7.252,0,0,1,1.894,1.233l.116.108c.083.079.164.157.24.24.039.039.079.081.118.122l.114.126a7.12,7.12,0,0,1,.659.876c.056.087.108.174.16.261.027.044.052.089.077.135.075.135.143.271.209.41.025.046.046.093.066.141s.041.093.06.141c.039.093.077.189.112.282l.008.014c.033.1.066.189.1.286.039.124.077.249.11.375s.064.253.091.381a1.355,1.355,0,0,1,.029.155c.01.054.021.106.029.157.029.172.05.346.066.522.006.089.015.182.017.271,0,.052.006.1.006.149,0,.029,0,.058,0,.089a2.419,2.419,0,0,1,0,.244c0,.039,0,.081,0,.118a7.148,7.148,0,0,1-.769,3.018l-.008.017-.008.015a7.344,7.344,0,0,1,2.532,1.185,7.466,7.466,0,0,1,1.931,2.068,6.862,6.862,0,0,1,.464.86c.027.06.054.12.081.182a4.9,4.9,0,0,1,1.3-.133c.093,0,.184.008.276.019.068,0,.141.012.207.023s.153.021.228.035l.025,0c.075.012.147.029.217.046.12.027.24.06.356.1.077.025.153.05.228.077h0c.056.021.11.044.164.064l.073.031.025.01.025.01.01,0,.008,0,.01.006.079.037c.031.012.062.029.093.044l.085.044.056.031.11.06.139.083.046.029c.05.031.1.064.147.1l.031.021.012.008.048.035.058.041.056.043.012.008.112.089.006,0c.039.033.081.066.116.1l.06.054.052.046.023.025.058.054.046.046q.115.112.218.23l.019.021.008.01c.037.046.077.091.114.139l.012.014c.033.041.066.083.1.126l.029.037c.025.037.052.073.075.11s.037.054.056.083a.972.972,0,0,1,.062.1c.031.048.06.1.089.143l.014.027a1.076,1.076,0,0,1,.052.1.876.876,0,0,1,.052.1l.031.058,0,.008c.027.054.054.11.079.166l.021.046c.021.05.041.1.06.145l.017.039c.008.021.017.044.025.066l.035.1.023.073a.737.737,0,0,1,.027.081l.014.046.019.068.017.062.01.041c.01.033.019.066.027.1l.01.048c.012.044.021.091.031.137s.023.12.031.182h.01a2.353,2.353,0,0,1,1.813.945Z" transform="translate(113.693 59.719)" fill="#fff"/><path d="M85.682,128.555h94.582a.47.47,0,0,0-.077-.025l-8.463-2.068a3.21,3.21,0,0,0-3.3-3.033c-.037,0-.073.008-.11.01a6.045,6.045,0,0,0-9.758-2.938,7.179,7.179,0,0,0-6.387-1.409,6.928,6.928,0,0,0-.872.288,8.647,8.647,0,0,0-8-4.763,9.031,9.031,0,0,0-.957.087l-.06-.081a6.084,6.084,0,0,0-.578-.661,6,6,0,0,0-4.444-1.746,6.069,6.069,0,0,0-.918.1,6.491,6.491,0,0,0-6.246-8.886,6.719,6.719,0,0,0-1.181.149,7.89,7.89,0,0,0-11.892-2.772,7.713,7.713,0,0,0-.9.806l-.014.017a6.191,6.191,0,0,0-8.424,5.971c.008.224.029.443.058.661l0,.019a6.891,6.891,0,0,0-.8-.019c-.164,0-.329.015-.491.031-.039,0-.081.008-.118.015a6.44,6.44,0,0,0-.64.1q-.087.016-.174.037l-.017,0c-.1.025-.205.052-.3.079-.052.014-.1.029-.151.046l-.1.031-.1.033c-.112.039-.222.081-.331.122-.052.021-.1.041-.155.064l-.128.056a7.252,7.252,0,0,0-1.894,1.233l-.116.108c-.083.079-.164.157-.242.24-.039.039-.077.081-.116.122l-.114.126a7.353,7.353,0,0,0-.661.876c-.054.087-.106.174-.157.261-.027.044-.052.089-.077.135q-.112.2-.211.41a1.225,1.225,0,0,0-.064.141l-.062.141c-.039.093-.075.189-.112.282l-.006.014c-.033.1-.068.189-.1.286-.037.124-.075.249-.11.375s-.062.253-.089.381q-.019.078-.031.155c-.008.054-.019.106-.027.157-.029.172-.05.346-.066.522-.008.089-.015.182-.017.271,0,.052-.006.1-.008.149v.089a2.41,2.41,0,0,0,0,.244v.118a7.379,7.379,0,0,0,.3,1.842,7.077,7.077,0,0,0,.47,1.177l.008.017.008.015a7.327,7.327,0,0,0-2.532,1.185,7.436,7.436,0,0,0-1.931,2.068,6.861,6.861,0,0,0-.464.86c-.027.06-.054.12-.081.182a4.905,4.905,0,0,0-1.3-.133c-.091,0-.182.008-.273.019-.07,0-.141.012-.209.023s-.151.021-.226.035l-.027,0c-.073.012-.145.029-.215.046-.12.027-.24.06-.356.1-.077.025-.153.05-.228.077h0l-.162.064-.075.031-.025.01-.023.01-.01,0-.008,0-.01.006-.081.037c-.031.012-.06.029-.091.044l-.085.044-.056.031-.11.06-.139.083-.048.029c-.05.031-.1.064-.147.1l-.031.021-.01.008-.048.035-.06.041-.054.043-.012.008-.112.089-.006,0c-.039.033-.081.066-.118.1l-.06.054-.05.046-.025.025-.056.054-.048.046c-.075.075-.147.151-.215.23l-.019.021-.01.01c-.037.046-.075.091-.112.139l-.012.014c-.033.041-.066.083-.1.126l-.027.037c-.025.037-.052.073-.077.11s-.037.054-.054.083-.044.064-.064.1-.06.1-.087.143l-.017.027-.052.1c-.017.031-.035.064-.05.1l-.031.058,0,.008c-.029.054-.054.11-.079.166l-.021.046c-.021.05-.044.1-.06.145l-.017.039a.363.363,0,0,0-.025.066l-.035.1-.025.073q-.012.037-.025.081l-.014.046-.019.068-.017.062-.012.041c-.008.033-.017.066-.025.1l-.012.048c-.01.044-.019.091-.029.137s-.023.12-.031.182h-.01a2.357,2.357,0,0,0-1.815.945Z" transform="translate(44.862 59.719)" fill="#fff"/><g transform="translate(114.438 286.016)"><path d="M338.062,165.939l-38.538,38.536-86.981,87a6.47,6.47,0,0,1-9.093,0L96.458,184.489,81.125,169.156l-3.217-3.217a10.523,10.523,0,0,0,1.415.108,9.446,9.446,0,0,0,8.579-5.513,9.43,9.43,0,0,0,17.156,0,9.43,9.43,0,0,0,17.156,0,9.43,9.43,0,0,0,17.156,0,9.432,9.432,0,0,0,17.158,0,9.43,9.43,0,0,0,17.156,0,9.43,9.43,0,0,0,17.156,0,9.43,9.43,0,0,0,17.156,0,9.43,9.43,0,0,0,17.156,0,9.43,9.43,0,0,0,17.156,0,9.43,9.43,0,0,0,17.156,0,9.432,9.432,0,0,0,17.158,0,9.43,9.43,0,0,0,17.156,0,9.43,9.43,0,0,0,17.156,0,9.43,9.43,0,0,0,17.156,0,9.4,9.4,0,0,0,8.579,5.513A9.971,9.971,0,0,0,338.062,165.939Z" transform="translate(-77.908 -160.534)" fill="#1b75bb"/></g><g transform="translate(93.976 95.501)"><path d="M114.754,97.168l-.064.128c-.044.108-.128.28-.236.516-.064.149-.151.321-.236.535q-.385.87-1.03,2.316v.023c-.75,1.695-1.736,3.924-2.853,6.584-4.653,11.044-11.859,29.251-15.654,44.755-5.662,23.2-5.877,55.329-9.329,86.19L73.964,226.827c1.674-14.711,4.655-39.632,7.421-58.139,2.917-19.644,15.954-47.5,23.483-62.363.793-1.587,1.543-3.045,2.208-4.311.6-1.156,1.137-2.165,1.587-3a2.129,2.129,0,0,1,.149-.3c.023-.021.023-.041.043-.085a.073.073,0,0,0,.021-.044c.064-.128.151-.257.215-.385a2.429,2.429,0,0,1,.128-.236v-.044c.644-1.179,1.009-1.821,1.009-1.821l.3.064.023.021.45.108.537.128.514.106.087.023.943.213Z" transform="translate(-61.672 -39.077)" fill="#004a66"/><path d="M90,100.951a4.893,4.893,0,1,0,5.662-3.978A4.891,4.891,0,0,0,90,100.951Z" transform="translate(-44.566 -38.217)" fill="#004a66"/><path d="M87.447,100.532a4.448,4.448,0,1,0,5.148-3.615A4.448,4.448,0,0,0,87.447,100.532Z" transform="translate(-47.295 -38.27)" fill="#004a66"/><path d="M97.971,99.046s20.419-15.919,37.059-3.636A40.782,40.782,0,0,1,151.908,125.3l-11.7-8.25,2.244-7.819-4.2,6.112-4.815-3.526,1.229-11.759-3.878,10.417-4.643-2.747,1.8-10.582-3.12,9.911-7.549-2.6-1.144-8.72-.619,8.1s-10.605-3.451-19.246-.365l-4.844,2.076-.369-1.094Z" transform="translate(-43.362 -44.8)" fill="#004a66"/><path d="M117.025,110.241s.729-24.608-17.5-29.45a38.018,38.018,0,0,0-31.49,5.587l12.536,3.638,4.6-6.358L82.9,90.427l5.256,1.419,8.094-7.986-5.647,9.126,4.578,1.761,6.911-7.7-5.689,8.266,6.06,3.986,7.123-4.411-5.7,5.333s8.359,5.722,10.771,13.936l1.1,4.813,1.015-.385Z" transform="translate(-68.031 -56.853)" fill="#004a66"/><path d="M131.935,85.287l3.94,4.949a72.141,72.141,0,0,0-8.529,2.264l-5.691-6.52,4.038,7.083q-1.9.668-3.938,1.5l-5.942-5.03,4.7,5.544q-1.445.609-2.952,1.3c-1.293.6-2.53,1.2-3.723,1.815l-7.529-3.526,6.35,4.135c-12.049,6.362-18.909,13.073-20.891,15.171l-.114.07-.721-.512s18.1-47.569,55.456-24.223a36.615,36.615,0,0,0-9.161.675Z" transform="translate(-43.488 -53.26)" fill="#004a66"/><path d="M98.123,77.8l-7.332-.056a65.944,65.944,0,0,1,3.5,8.4l9.99.483-9.43,1.224q.622,1.973,1.185,4.168l8.734,1.639-8.4-.3c.251,1.046.491,2.121.715,3.24.288,1.436.53,2.832.74,4.2l8.353,3.893-8.152-2.542c1.927,13.889.079,23.765-.607,26.721l.008.139.965.263s33.34-45.114-13.684-60.7a34.99,34.99,0,0,1,5.43,7.906Z" transform="translate(-50.162 -68.574)" fill="#004a66"/><path d="M110.86,98.053c4.583,2.192,7.63,10.727,8.589,19.913l-3.551-2.153,3.713,3.98a54.5,54.5,0,0,1-.265,11.046l-1.715-3.277,1.409,5.2a21.985,21.985,0,0,1-3.172,8.515,71.683,71.683,0,0,1-5.351-5.946l2.834-8.475L109.4,133.9a38.574,38.574,0,0,1-4.365-7.042l6.217-13.514-6.913,11.738a67.573,67.573,0,0,1-1.653-9.109l4.949-8.832-5.324,6.534a32.879,32.879,0,0,0-1.9-6.992l2.1-5.991L99.6,105.023a9.568,9.568,0,0,0-8.359-5.246l.089-1.1S101.846,93.74,110.86,98.053Z" transform="translate(-43.156 -38.875)" fill="#004a66"/><path d="M99.3,92.114c-5.548-.3-12.957,6.281-18.7,14.587l4.535-.2-5.652,1.867a59.528,59.528,0,0,0-5.55,10.736l3.369-2.244-4.083,4.249c-1.187,3.6-3.468,9.52-3.151,12.354a76.107,76.107,0,0,1,9.975-5.409l1.734-9.619.089,8.834a42.2,42.2,0,0,0,7.887-4.46l1.139-16.23.462,14.894a74.34,74.34,0,0,0,6.373-7.87l-.106-11.073,1.672,9.066a36.155,36.155,0,0,1,5.5-5.71l1.129-6.851.52,5.683a10.466,10.466,0,0,1,10.775-.64l.493-1.1S110.216,92.713,99.3,92.114Z" transform="translate(-65.877 -43.356)" fill="#004a66"/><g transform="translate(192.548)"><path d="M214.907,99.046S194.488,83.127,177.85,95.41A40.781,40.781,0,0,0,160.972,125.3l11.7-8.25-2.246-7.819,4.2,6.112,4.815-3.526-1.231-11.759,3.88,10.417,4.643-2.747-1.8-10.582,3.122,9.911,7.549-2.6,1.144-8.72.619,8.1s10.605-3.451,19.246-.365l4.844,2.076.369-1.094Z" transform="translate(-160.972 -44.8)" fill="#004a66"/><path d="M189.719,110.241s-.731-24.608,17.5-29.45a38.018,38.018,0,0,1,31.49,5.587l-12.534,3.638-4.6-6.358,2.264,6.768-5.256,1.419-8.094-7.986,5.65,9.126-4.581,1.761-6.909-7.7,5.687,8.266L204.277,99.3l-7.125-4.411,5.7,5.333s-8.359,5.722-10.773,13.936l-1.094,4.813-1.017-.385Z" transform="translate(-130.167 -56.853)" fill="#004a66"/><path d="M178.149,85.287l-3.94,4.949a72.14,72.14,0,0,1,8.529,2.264l5.691-6.52-4.038,7.083q1.892.668,3.938,1.5l5.942-5.03-4.7,5.544q1.445.609,2.952,1.3c1.291.6,2.527,1.2,3.723,1.815l7.527-3.526L197.427,98.8c12.049,6.362,18.907,13.073,20.891,15.171l.112.07.723-.512S201.054,65.964,163.7,89.31a36.617,36.617,0,0,1,9.161.675Z" transform="translate(-158.052 -53.26)" fill="#004a66"/><path d="M196.285,77.8l7.332-.056a65.637,65.637,0,0,0-3.5,8.4l-9.99.483,9.43,1.224q-.622,1.973-1.185,4.168l-8.734,1.639,8.4-.3c-.249,1.046-.489,2.121-.713,3.24-.288,1.436-.53,2.832-.74,4.2l-8.353,3.893,8.152-2.542c-1.929,13.889-.079,23.765.6,26.721l-.006.139-.965.263s-33.342-45.114,13.684-60.7a34.99,34.99,0,0,0-5.43,7.906Z" transform="translate(-135.7 -68.574)" fill="#004a66"/><path d="M185.3,98.053c-4.585,2.192-7.63,10.727-8.589,19.913l3.549-2.153-3.71,3.98a54.347,54.347,0,0,0,.265,11.046l1.715-3.277-1.409,5.2a21.985,21.985,0,0,0,3.172,8.515,71.679,71.679,0,0,0,5.351-5.946l-2.834-8.475,3.953,7.044a38.572,38.572,0,0,0,4.365-7.042l-6.217-13.514,6.913,11.738a67.9,67.9,0,0,0,1.653-9.109l-4.949-8.832,5.322,6.534a33.126,33.126,0,0,1,1.9-6.992l-2.1-5.991,2.915,4.328a9.567,9.567,0,0,1,8.357-5.246l-.087-1.1S194.308,93.74,185.3,98.053Z" transform="translate(-144.454 -38.875)" fill="#004a66"/><path d="M206.751,92.114c5.55-.3,12.957,6.281,18.7,14.587l-4.535-.2,5.65,1.867a59.541,59.541,0,0,1,5.552,10.736l-3.371-2.244,4.085,4.249c1.187,3.6,3.468,9.52,3.151,12.354a76.108,76.108,0,0,0-9.975-5.409l-1.734-9.619-.091,8.834a42.262,42.262,0,0,1-7.887-4.46l-1.137-16.23-.464,14.894a74.351,74.351,0,0,1-6.371-7.87l.106-11.073-1.672,9.066a36.156,36.156,0,0,0-5.5-5.71l-1.129-6.851-.522,5.683a10.463,10.463,0,0,0-10.773-.64l-.5-1.1S195.841,92.713,206.751,92.114Z" transform="translate(-131.635 -43.356)" fill="#004a66"/><path d="M228.537,226.806l-11.409,11.409c-3.431-30.86-3.646-62.987-9.329-86.19-3.8-15.5-10.98-33.711-15.633-44.755-1.117-2.66-2.1-4.889-2.853-6.584v-.023q-.643-1.445-1.03-2.316c-.085-.213-.172-.385-.236-.535-.106-.236-.193-.408-.236-.516l-.064-.128,1.674-.408.922-.213.108-.023.47-.106.557-.128.452-.108.044-.021.3-.064s.344.622.988,1.8v.021c.041.087.106.195.17.3a1.735,1.735,0,0,1,.172.365l.043.044a.081.081,0,0,0,.021.044,2.644,2.644,0,0,1,.172.342c.452.837.986,1.823,1.566,2.981.665,1.266,1.415,2.724,2.229,4.332,7.529,14.863,20.566,42.719,23.483,62.363C223.861,187.195,226.842,212.093,228.537,226.806Z" transform="translate(-132.277 -39.077)" fill="#004a66"/><path d="M196.461,100.951a4.893,4.893,0,1,1-5.662-3.978A4.891,4.891,0,0,1,196.461,100.951Z" transform="translate(-133.348 -38.217)" fill="#004a66"/><path d="M198.553,100.532a4.448,4.448,0,1,1-5.148-3.615A4.447,4.447,0,0,1,198.553,100.532Z" transform="translate(-130.16 -38.27)" fill="#004a66"/></g></g><path d="M428.606,164.858l-29.679,29.679H82.223L52.543,164.858a17.15,17.15,0,0,1,0-24.276l18.571-18.573a34.713,34.713,0,0,1,5.21-.385h328.5a34.713,34.713,0,0,1,5.21.385l18.571,18.573A17.188,17.188,0,0,1,428.606,164.858Z" transform="translate(3.951 83.78)" fill="#b3b3b3" style="mix-blend-mode:multiply;isolation:isolate"/><path d="M279.584,184.566,254.429,209.72,192.6,271.568a6.47,6.47,0,0,1-9.093,0l-87-87a753.7,753.7,0,0,1,91.549-5.449A753.637,753.637,0,0,1,279.584,184.566Z" transform="translate(56.462 145.398)" fill="#f0c85e"/><rect width="401.4" height="72.914" rx="17.597" transform="translate(43.822 200.044)" fill="#f05a28"/><path d="M-109.471.848c11.5,0,17.278-5.724,17.278-12.508,0-13.674-20.511-9.964-20.511-14.416,0-1.272,1.166-2.332,4.823-2.332a22.888,22.888,0,0,1,10.335,2.756l3.763-9.063a29.449,29.449,0,0,0-13.992-3.233c-11.5,0-17.278,5.618-17.278,12.508,0,13.833,20.511,10.07,20.511,14.734,0,1.272-1.272,2.014-4.823,2.014a25.453,25.453,0,0,1-12.243-3.392l-4.028,9.116C-121.926-.689-115.672.848-109.471.848Zm38.743,0c11.4,0,18.073-6.413,18.073-17.543V-37.1h-12.3v20.034c0,5.671-2.173,7.791-5.671,7.791s-5.671-2.12-5.671-7.791V-37.1H-88.8V-16.7C-88.8-5.565-82.123.848-70.728.848ZM-2.411,0l-.106-37.1H-12.8L-24.565-17.331-36.649-37.1H-46.931V0h11.4V-16.324L-27.48-3.339h5.512l8.056-13.568L-13.806,0ZM48.151,0l-.106-37.1H37.763L26-17.331,13.913-37.1H3.631V0h11.4V-16.324L23.082-3.339h5.512L36.65-16.907,36.756,0ZM66.489-9.434V-14.31H82.176v-9.01H66.489v-4.346H84.35V-37.1H54.193V0H85.039V-9.434ZM112.068,0h13.356l-7.791-11.448a12.424,12.424,0,0,0,7-11.66c0-8.586-6.572-13.992-16.907-13.992H89.861V0h12.508V-9.328h3.392Zm-.053-23.108c0,2.7-1.643,4.346-5.088,4.346h-4.558v-8.692h4.558C110.372-27.454,112.015-25.811,112.015-23.108Z" transform="translate(242.075 254.513)" fill="#fcee21"/><g transform="translate(167.002 244.384)"><text transform="translate(77.463 60.917) rotate(-8.252)" fill="#b3b3b3" font-size="50" font-family="Yellowtail" style="mix-blend-mode:multiply;isolation:isolate"><tspan x="-69.397" y="0">Holiday</tspan></text><path d="M-20.715-34.5a1.213,1.213,0,0,0-1.05-.342c-.317,0-1.562-.146-2.148-.146a1.991,1.991,0,0,0-1.855,1.025c-.586.806-6.812,10.62-9.814,15.356-4.541.146-11.938.244-14.087.244,3.394-5.249,9.692-14.795,10.034-15.479a1.534,1.534,0,0,0,.22-.61c0-.171-.1-.244-.269-.391-.269-.317-.586-1.2-1.685-1.2a4.806,4.806,0,0,0-1.758.391c-.293.2-6.689,4.492-9.5,4.492-1.514,0-2.856-.464-2.856-1,0-.244.513-.244.513-.464,0-.146-.22-.293-.513-.293-1.685,0-3.394,1.1-3.394,2.808,0,2.1,2.2,3.3,4.541,3.3a11.277,11.277,0,0,0,7.153-2.637c-2.734,3.882-5.835,8.5-7.593,11.255-.513,0-.952.049-1.392.049-1.416,0-3.516-.171-5-.22-.2,0-.366-.171-.635-.171s-.562.1-.562.659a4.572,4.572,0,0,0,.244,1.318c.415,1.66,1.172,2.173,2.2,2.344.342.073,1.294.049,2.539.1-1.9,2.93-4.858,7.153-6.689,10.254a11.211,11.211,0,0,0-1.05,2.515,1.848,1.848,0,0,0-.024.366c0,.562.439.879,1.05.879.244,0,.171-.146.244-.146s.146.146.22.146.317.024.562.024c.635,0,.61-.2.781-.2.269,0,.2.464.757.464a2.167,2.167,0,0,0,.366-.049c.488-.146,5.347-8.838,8.74-14.307,1.758,0,3,.024,5.249.024,2.71,0,6.2-.049,8.911-.122-2.368,3.857-6.958,11.4-7.617,12.964a2.309,2.309,0,0,0-.22.854c0,.61.464.83,1.221.83A9.1,9.1,0,0,0-43.518.2h.146c.171,0,.269-.073.415-.073.122,0,.293.073.391.073.269,0,.464-.171.659-.171.122,0,.269.073.342.073.22,0,.2-.2.244-.244.2-.2,6.152-10.205,9.741-16.064,3.564-5.835,7.739-12.134,10.645-16.65a2.349,2.349,0,0,0,.513-1.1A.643.643,0,0,0-20.715-34.5Zm8.691,18.457A2.439,2.439,0,0,0-14.539-18.6a5.645,5.645,0,0,0-.83.049V-18.7c0-.293-.806-1.05-2.271-1.05-4.541,0-14.233,7.446-14.233,16.357a3.956,3.956,0,0,0,4,4.053C-20.837.659-12.024-11.108-12.024-16.04Zm-4.736.684c.22,0,.342.171.342.488,0,.977-1.123,3.394-3.809,6.763-2.954,3.711-5.859,5.151-6.958,5.151-.659,0-1-.513-1-1.367.024-1.465,1-3.979,3.1-6.689a16.85,16.85,0,0,1,7.3-5.591c0,1,.366,1.245.854,1.245Zm27.393-18.75a2.733,2.733,0,0,0-2.954-2.539c-3.345,0-8.008,5.957-11.011,10.205-3.882,5.493-8.3,15.381-8.3,22.144,0,3.149,1.514,5.249,4.761,5.249A12.6,12.6,0,0,0,1.721-3.1,3.231,3.231,0,0,0,2.869-5.42v-.488c0-.391,0-1.782-.635-1.782-1.05,0-4.419,5.029-7.471,5.029A2.4,2.4,0,0,1-7.874-5.1a19.554,19.554,0,0,1,.391-2.344C-3.333-12.061,10.632-28.491,10.632-34.106ZM6.58-32.593c0,2.637-10.693,16.8-13.062,19.6A50.622,50.622,0,0,1-2.869-21.24c.977-1.758,7.91-11.719,9.2-11.719C6.531-32.959,6.58-32.788,6.58-32.593Zm9.644,5.786a1.3,1.3,0,0,0-1.44-1.392,4.442,4.442,0,0,0-3.955,4.15,1.28,1.28,0,0,0,1.44,1.44C14.124-22.607,16.223-25,16.223-26.807ZM12.268-5.493c0-.439.049-2.2-.635-2.2-.757,0-3.955,4.932-6.909,4.932-.61,0-1.245-.146-1.245-.83,0-1.172,1.245-2.93,1.831-3.906.708-1.221,5.811-10.034,5.811-10.547A2.342,2.342,0,0,0,9.314-20c-2.1,0-5.884,4.15-5.884,4.541,0,.562,1,1.05,1,1.611C4.431-13.452-.94-5.64-.94-3.2A4.632,4.632,0,0,0,3.5,1a10.606,10.606,0,0,0,8.618-5.444A2.551,2.551,0,0,0,12.268-5.493ZM42.126-35.547a.962.962,0,0,0-1-1.05,4.115,4.115,0,0,0-3.2,1.343,33.54,33.54,0,0,0-2.417,3.442c-1.9,2.905-3.711,5.859-5.493,8.862-.879,1.489-1.66,3-2.612,4.492a3.048,3.048,0,0,0-1.831-.952c-6.763,0-16.357,9.106-16.357,15.967,0,1.953.806,3.833,3.052,3.833,3.955,0,8.4-4.785,10.645-7.69a13.3,13.3,0,0,0-1.465,5.054c0,1.758.879,3.1,3.662,3.1,3.247,0,7.007-4,7.666-5.3a2.589,2.589,0,0,0,.146-1.05c0-1.318-.073-2.173-.659-2.173a.849.849,0,0,0-.537.22c-.562.488-3.931,4.688-6.03,4.688-.562,0-.732-.488-.732-1v-.2c0-2,5.64-12.354,7.007-14.7,3.174-5.493,6.592-10.889,9.937-16.309A1.222,1.222,0,0,0,42.126-35.547ZM25.916-16.162c-1.05,1.514-2.173,2.954-3.345,4.37C21.5-10.5,15.271-3.345,13.66-3.345c-.293,0-.342-.317-.342-.562a8.473,8.473,0,0,1,1.147-3.149C16.858-11.353,21.057-15.088,25.916-16.162ZM53.479-7.2a.507.507,0,0,0-.513-.464.849.849,0,0,0-.537.22c-.391.342-3.833,4.663-5.786,4.663-.61,0-.781-.732-.781-1.343a2.657,2.657,0,0,1,.073-.684c.806-4.395,4.883-11.06,5.249-11.45a1.573,1.573,0,0,0,.342-1.025c0-.879-.83-1.27-1.855-1.27-1,0-1.392.1-2.2,1.343-.269-.806-1.318-1.538-3.2-1.538-5.42,0-14.6,7.69-14.6,14.941a6.86,6.86,0,0,0,.1,1.221A3.86,3.86,0,0,0,33.582.757c2.441,0,6.4-2.808,9.082-6.3a5.724,5.724,0,0,0-.488,2.319c0,2.051,1.1,4.077,3.638,4.077,3.271,0,7.007-4,7.666-5.3a2.589,2.589,0,0,0,.146-1.05A12.342,12.342,0,0,0,53.479-7.2Zm-7.056-8.643c-1.294,1.733-2.954,4.1-4.053,5.493C40.515-8.057,34.949-3.2,34.021-3.2c-.342,0-.488-.22-.488-.61,0-1.465,2.1-5.176,4.248-7.4C41.565-15.161,44.763-15.845,46.423-15.845ZM58.8,8.105A102.313,102.313,0,0,1,72.546-4.443a1.252,1.252,0,0,0,.244-.9c0-1.343-.22-2.319-.757-2.319a.849.849,0,0,0-.537.22C68.3-4.541,64.49-1.1,61.047,1.807,63.953-4.2,71.179-16.04,71.594-16.846a2.171,2.171,0,0,0,.317-.854c0-.293-.22-.415-.464-.757-.293-.391-1.636-.537-1.855-.537-.9,0-1.9,1.685-2.954,3.247C63.074-10.425,55.579-3.662,54.285-3.662c-.122,0-.2-.049-.2-.2,0-1.587,6.4-11.646,6.4-13.184,0-1.147-1.392-1.855-1.855-1.855-.928,0-1.831,2.905-4.126,6.445-3.223,5.908-4.468,6.592-4.761,10.205a1.5,1.5,0,0,0-.024.342A2.582,2.582,0,0,0,50.6.244,3.591,3.591,0,0,0,52.527.9H52.7c2.734-.293,5.688-3.2,8.2-5.957-2.222,4.2-3.247,6.25-3.662,6.86-.537.757-4.053,3.442-6.1,7.3a8.148,8.148,0,0,0-1.025,3.564,2.025,2.025,0,0,0,2.246,2.271c.22,0,.439-.024.684-.049C55.7,14.551,58.289,8.643,58.8,8.105Z" transform="translate(75.319 59.404) rotate(-8.252)" fill="#fcee21"/></g><g transform="translate(114.471 261.724)"><path d="M79.457,162.78a51,51,0,0,1,4.011,7.483l-2.36-2.358-2.016-2.018a15.2,15.2,0,0,1-1.158-4.032C78.063,161.449,78.62,161.878,79.457,162.78Z" transform="translate(-77.924 -134.991)" fill="#004a66"/><path d="M92,169.575s.922.087-3.217,1.844a9.3,9.3,0,0,1-2.273.624l-2.059-2.059a22.023,22.023,0,0,0,4.032-.365A7.754,7.754,0,0,1,92,169.575Z" transform="translate(-70.93 -126.733)" fill="#004a66"/><path d="M94.277,167.357c.771-.023,1.543.321,1.158.6-.387.257-2.252,1.05-3.69,1.651a45.153,45.153,0,0,1-6.712,1.759,1.287,1.287,0,0,1-.278.041L83.446,170.1a25.1,25.1,0,0,0,4.717-1.009A37.481,37.481,0,0,1,94.277,167.357Z" transform="translate(-72.006 -128.932)" fill="#004a66"/><path d="M97.037,172.135c.342-.064,3.259-1.651,3.9-2.016.665-.365,3.431-1.887,4.91-2.486s5.1-1.887,5.1-1.523c0,.406-1.867,1.865-2.7,2.509a12.789,12.789,0,0,1-3,1.8c-1.436.624-6.112,2.9-7.334,3.389a25.16,25.16,0,0,0-3.816,1.608c-.472.452-.215.6.321.6a22.125,22.125,0,0,0,4.4-1.823c1.266-.665,3.988-1.608,6.132-2.573a16.993,16.993,0,0,1,5.49-1.115c.323.021-.686,1.007-2.358,1.887a60.9,60.9,0,0,1-7.292,3c-1.243.342-4.933,1.78-6.284,2.208s-2.4,1.073-2.1,1.307c.3.259,1.564-.363,2.722-.793,1.158-.45,5.449-1.844,8.171-3.066s5.1-1.115,4.74-.665A15.663,15.663,0,0,1,103.449,177a41.284,41.284,0,0,1-6.54,2.167,42.774,42.774,0,0,0-4.976,1.608c-.773.321-.814.493-.149.686.665.215,3.559-.642,4.481-1.007.945-.365,2.445-1.009,4.419-1.952,1.993-.965,5.318-.922,5.125-.6a12.756,12.756,0,0,1-4.547,2.917,71.4,71.4,0,0,1-9.671,2.853c-1.653.234-2.231.578-2.211.963,0,.387,1.05.128,2.339-.149a56.564,56.564,0,0,0,5.683-1.674,41.819,41.819,0,0,1,6.348-1.456c.835-.131.385.321.385.321-2.08,1.952-12.246,5.167-13.682,5.362s-2.552.47-2.08.6c.45.149,4.761-.858,8.492-2.275,3.752-1.415,4.7-.578,4.846-.472.151.13-1.351,1.094-2.316,1.5a84.5,84.5,0,0,1-8.384,2.488,11.294,11.294,0,0,1-3.667-.023L83.7,185.218c-.706-1.438-1.608-3.346-2.445-4.953-1.479-2.9-2.637-6.971-2.465-7.549.149-.58.665.021.665.021,2.016,2,6.325,12.975,6.561,13.189s.665-.234.58-.878a69.007,69.007,0,0,0-4.527-8.877c-1.8-3-2.186-6.155-2.016-6.414.172-.234.624.172.624.172,2.915,2.6,5.49,10.187,5.875,11s1.179,2.337,1.436,2.057c.259-.3-.149-1.479-.578-2.617-.429-1.115-2.036-4.653-3.667-8.148-1.63-3.474-1.823-6.155-1.566-6.155.28,0,1.181,1.03,1.181,1.03,2.036,2,4.288,8.705,4.481,10.315.193,1.587,1.5,3.538,1.8,2.766.3-.793-.385-3.023-1.715-5.275a40.65,40.65,0,0,1-3.8-10.423c-.45-2.724-.064-2.059-.064-2.059,2.445,1.78,3.217,4.119,4.268,6.777s2.167,8.127,2.424,8.214c.278.085.771-1.115.686-1.566-.064-.47-1.33-3.988-2.424-7.419-1.094-3.454-1.436-9.5-1.222-9.781.193-.257.215-.021.215-.021,2.617,3.518,4.375,15.356,4.44,15.849s.47.041.535-.472c.064-.537-.429-2.3-1.243-5.447a115.555,115.555,0,0,1-2.188-12.526c.085-.514.257-.149.257-.149,2.809,2.789,4.032,12.588,4.375,14.369.321,1.757.729.128.858-.516.108-.642-.642-7.185-.943-9.37-.323-2.188-.988-9.5.213-8.836,1.2.686,2.036,4.933,1.972,7.054-.041,2.144-.193,7.249.108,8.3.3,1.03.945.236.686-.793-.234-1.007-.234-9.093-.17-11.365a15.716,15.716,0,0,1,.771-4.782c.151-.023.257.406.257.406a68.572,68.572,0,0,1,.344,13.124c-.108,1.03.128.773.58-.17a16.365,16.365,0,0,0,.922-5.169c.064-1.844.814-7.527,1.007-8.515s.472-.793.472-.793c.9.988.193,7.871.193,7.871.537-1.158,3.561-7.527,4.483-7.634a.158.158,0,0,1,.128.044c.706.578-2.424,7.527-2.768,8.32,1.222-1.715,5.983-5.96,6.091-5.618s-2.573,4.825-4.181,6.735c-1.587,1.908-4.054,4.052-4.8,4.954-.75.878-.514,1.179-.108.922s3.261-2.96,5.082-4.717c1.823-1.717,6.2-5.061,5.855-4.011s-3.323,4.44-4.738,5.811c-1.438,1.374-3.068,2.08-4.889,3.6a11.8,11.8,0,0,0-3.045,3.495c-.064.344,1.307-.729,2.188-1.415.878-.665,3.066-1.736,5.488-3.323,2.424-1.566,6.5-2.7,6.178-2.016a10.142,10.142,0,0,1-3.045,2.7c-1.351.9-4.288,2.617-5.79,3.41-1.5.773-4.848,2.617-5.834,3.153C96.757,171.621,96.672,172.2,97.037,172.135Z" transform="translate(-77.017 -148.809)" fill="#004a66"/><path d="M196.857,169.619a21.891,21.891,0,0,0,4.032.365l-2.057,2.059a9.312,9.312,0,0,1-2.275-.624c-4.137-1.757-3.215-1.844-3.215-1.844A7.743,7.743,0,0,1,196.857,169.619Z" transform="translate(45.678 -126.733)" fill="#004a66"/><path d="M199.48,169.093A25.1,25.1,0,0,0,204.2,170.1l-1.307,1.307a1.325,1.325,0,0,1-.28-.041,45.153,45.153,0,0,1-6.712-1.759c-1.436-.6-3.3-1.394-3.688-1.651-.385-.28.385-.624,1.158-.6A37.413,37.413,0,0,1,199.48,169.093Z" transform="translate(44.449 -128.932)" fill="#004a66"/><path d="M217.551,180.264c-.837,1.608-1.738,3.516-2.445,4.953l-3.646,3.644a11.3,11.3,0,0,1-3.667.023,84.559,84.559,0,0,1-8.386-2.488c-.965-.408-2.465-1.371-2.316-1.5.151-.106,1.094-.943,4.848.472,3.731,1.417,8.042,2.424,8.492,2.275.472-.13-.644-.408-2.08-.6s-11.6-3.41-13.682-5.362c0,0-.452-.452.385-.321a41.874,41.874,0,0,1,6.348,1.456,56.407,56.407,0,0,0,5.683,1.674c1.287.278,2.337.537,2.337.149.023-.385-.557-.729-2.208-.963a71.314,71.314,0,0,1-9.671-2.853,12.734,12.734,0,0,1-4.547-2.917c-.193-.321,3.13-.365,5.125.6,1.974.943,3.474,1.587,4.419,1.952.922.365,3.816,1.222,4.481,1.007.665-.193.622-.365-.149-.686a42.913,42.913,0,0,0-4.976-1.608,41.285,41.285,0,0,1-6.54-2.167,15.631,15.631,0,0,1-4.589-2.617c-.365-.45,2.016-.557,4.738.665s7.013,2.617,8.171,3.066c1.158.431,2.424,1.052,2.724.793.3-.234-.75-.878-2.1-1.307s-5.038-1.867-6.284-2.208a61.025,61.025,0,0,1-7.29-3c-1.672-.88-2.681-1.867-2.36-1.887a16.984,16.984,0,0,1,5.49,1.115c2.144.965,4.869,1.908,6.134,2.573a22.076,22.076,0,0,0,4.4,1.823c.537,0,.793-.149.321-.6a25.158,25.158,0,0,0-3.816-1.608c-1.224-.493-5.9-2.766-7.336-3.389a12.813,12.813,0,0,1-3-1.8c-.837-.644-2.7-2.1-2.7-2.509,0-.365,3.623.922,5.1,1.523s4.247,2.121,4.912,2.486c.644.365,3.559,1.952,3.9,2.016.365.064.278-.514-.709-1.028-.986-.537-4.332-2.38-5.832-3.153-1.5-.793-4.44-2.509-5.79-3.41a10.089,10.089,0,0,1-3.045-2.7c-.321-.686,3.752.45,6.176,2.016,2.424,1.587,4.612,2.658,5.49,3.323.88.686,2.252,1.759,2.188,1.415A11.8,11.8,0,0,0,197.2,165.1c-1.823-1.523-3.454-2.229-4.889-3.6-1.415-1.371-4.4-4.761-4.74-5.811s4.032,2.293,5.855,4.011c1.823,1.757,4.676,4.46,5.084,4.717s.642-.043-.108-.922c-.752-.9-3.217-3.045-4.8-4.954-1.608-1.91-4.288-6.391-4.181-6.735s4.866,3.9,6.089,5.618c-.342-.793-3.474-7.742-2.766-8.32a.156.156,0,0,1,.128-.044c.922.108,3.947,6.476,4.483,7.634,0,0-.709-6.882.193-7.871,0,0,.278-.193.47.793s.965,6.671,1.009,8.515a16.306,16.306,0,0,0,.922,5.169c.45.943.686,1.2.58.17a68.516,68.516,0,0,1,.342-13.124s.108-.429.257-.406a15.617,15.617,0,0,1,.773,4.782c.064,2.273.064,10.359-.172,11.365-.257,1.03.387,1.823.688.793.3-1.05.149-6.155.106-8.3-.064-2.121.773-6.368,1.974-7.054,1.2-.665.535,6.648.213,8.836-.3,2.186-1.05,8.728-.943,9.37.128.644.534,2.273.878.516.321-1.782,1.543-11.581,4.353-14.369,0,0,.172-.365.259.149a116.073,116.073,0,0,1-2.188,12.526c-.816,3.151-1.309,4.91-1.245,5.447.064.514.472.965.537.472s1.823-12.331,4.44-15.849c0,0,.021-.236.236.021a34.853,34.853,0,0,1-1.245,9.781c-1.094,3.431-2.358,6.949-2.422,7.419-.087.452.406,1.651.686,1.566.257-.087,1.371-5.554,2.424-8.214s1.823-5,4.268-6.777c0,0,.385-.665-.066,2.059a40.572,40.572,0,0,1-3.8,10.423c-1.33,2.252-2.016,4.481-1.715,5.275.3.773,1.61-1.179,1.8-2.766.193-1.61,2.445-8.32,4.481-10.315,0,0,.9-1.03,1.179-1.03.259,0,.066,2.681-1.564,6.155-1.63,3.495-3.238,7.033-3.667,8.148-.429,1.137-.837,2.316-.58,2.617.257.28,1.05-1.243,1.438-2.057s2.958-8.407,5.875-11c0,0,.45-.406.622-.172.172.259-.213,3.41-2.016,6.414a69.2,69.2,0,0,0-4.525,8.877c-.085.644.344,1.094.58.878s4.545-11.194,6.561-13.189c0,0,.516-.6.665-.021C220.188,173.293,219.03,177.368,217.551,180.264Z" transform="translate(38.303 -148.809)" fill="#004a66"/><path d="M205.165,165.887l-4.375,4.375a51.005,51.005,0,0,1,4.011-7.483c.837-.9,1.394-1.33,1.523-.924A15.284,15.284,0,0,1,205.165,165.887Z" transform="translate(53.754 -134.991)" fill="#004a66"/></g><path d="M241.416,195.354l-31.2,31.225L179.59,257.2a6.47,6.47,0,0,1-9.093,0l-61.849-61.847c21.252-1.844,43.492-2.832,66.394-2.832S220.185,193.51,241.416,195.354Z" transform="translate(69.475 159.764)" fill="#f0c85e" opacity="0.5" style="mix-blend-mode:screen;isolation:isolate"/><path d="M194.059,209.371l-30.622,30.622a6.47,6.47,0,0,1-9.093,0L123.72,209.371q17.272-.8,35.17-.793T194.059,209.371Z" transform="translate(85.628 176.972)" fill="#f0c85e" opacity="0.5" style="mix-blend-mode:screen;isolation:isolate"/><g transform="translate(70.653 221.765)"><g transform="translate(0 0.002)"><path d="M72,158.988a21.867,21.867,0,0,1-3.789-.4,13.7,13.7,0,0,1-9.3-6.766A14.632,14.632,0,0,1,72.5,129.555a1.074,1.074,0,0,1-.155,2.142,12.485,12.485,0,0,0-11.581,19.041,11.566,11.566,0,0,0,7.825,5.737,23.193,23.193,0,0,0,3.507.369,11.233,11.233,0,0,0,7.9-3.367,12.9,12.9,0,0,0,2.7-12.076,7.862,7.862,0,0,0-5.938-5.764,10,10,0,0,0-9.393,3.335,7.993,7.993,0,0,0-2.092,4.906c-.079,2.969,2.983,6.1,6.066,6.209a5.177,5.177,0,0,0,5.507-4.479,3.667,3.667,0,0,0-1.09-3.677,2.927,2.927,0,0,0-.474-.257,4.069,4.069,0,0,0-4.181.924,1.272,1.272,0,0,0-.334,1.1,1.212,1.212,0,0,0,.918.791,1.515,1.515,0,0,0,.883-.075,1.071,1.071,0,1,1,.8,1.989,3.725,3.725,0,0,1-2.13.184,3.325,3.325,0,0,1-2.544-2.347,3.391,3.391,0,0,1,.818-3.081,6.138,6.138,0,0,1,6.623-1.456,5,5,0,0,1,.835.454,5.68,5.68,0,0,1,1.983,5.855,7.363,7.363,0,0,1-7.684,6.217c-4.295-.149-8.248-4.237-8.138-8.411a10.141,10.141,0,0,1,2.615-6.25,12.029,12.029,0,0,1,11.477-4.027,9.926,9.926,0,0,1,7.531,7.243,14.956,14.956,0,0,1-3.222,14.189,13.4,13.4,0,0,1-9.412,4.013Z" transform="translate(-56.773 -129.522)" fill="#fcee21"/></g><g transform="translate(319.171)"><path d="M224.172,158.99h-.114a13.386,13.386,0,0,1-9.41-4.013,14.955,14.955,0,0,1-3.222-14.189,9.926,9.926,0,0,1,7.531-7.243,12.03,12.03,0,0,1,11.477,4.027,10.143,10.143,0,0,1,2.615,6.25c.11,4.174-3.845,8.262-8.138,8.411a7.351,7.351,0,0,1-7.684-6.217,5.673,5.673,0,0,1,1.987-5.857,5.082,5.082,0,0,1,.829-.452,6.152,6.152,0,0,1,6.625,1.454,3.392,3.392,0,0,1,.816,3.085,3.327,3.327,0,0,1-2.54,2.345,3.736,3.736,0,0,1-2.134-.184,1.072,1.072,0,1,1,.8-1.989,1.537,1.537,0,0,0,.885.075,1.207,1.207,0,0,0,.914-.789,1.272,1.272,0,0,0-.331-1.1,4.071,4.071,0,0,0-4.183-.924,2.93,2.93,0,0,0-.468.255,3.661,3.661,0,0,0-1.094,3.679,5.153,5.153,0,0,0,5.507,4.479c3.083-.106,6.143-3.24,6.066-6.209a8.012,8.012,0,0,0-2.092-4.906,9.993,9.993,0,0,0-9.4-3.335,7.862,7.862,0,0,0-5.936,5.764,12.9,12.9,0,0,0,2.7,12.076,11.233,11.233,0,0,0,7.9,3.367,24.109,24.109,0,0,0,3.507-.369,11.568,11.568,0,0,0,7.823-5.737A12.485,12.485,0,0,0,223.83,131.7a1.074,1.074,0,0,1-.155-2.142,14.631,14.631,0,0,1,13.588,22.263,13.7,13.7,0,0,1-9.3,6.768A21.911,21.911,0,0,1,224.172,158.99Z" transform="translate(-210.834 -129.521)" fill="#fcee21"/></g></g></g></svg>