<?xml version="1.0" encoding="UTF-8" standalone="no"?>
<svg
   xmlns:osb="http://www.openswatchbook.org/uri/2009/osb"
   xmlns:dc="http://purl.org/dc/elements/1.1/"
   xmlns:cc="http://creativecommons.org/ns#"
   xmlns:rdf="http://www.w3.org/1999/02/22-rdf-syntax-ns#"
   xmlns:svg="http://www.w3.org/2000/svg"
   xmlns="http://www.w3.org/2000/svg"
   xmlns:sodipodi="http://sodipodi.sourceforge.net/DTD/sodipodi-0.dtd"
   xmlns:inkscape="http://www.inkscape.org/namespaces/inkscape"
   width="401.4"
   height="386.116"
   viewBox="0 0 401.4 386.116"
   version="1.1"
   id="svg338"
   sodipodi:docname="Summer Holiday footer.svg"
   inkscape:version="0.92.5 (2060ec1f9f, 2020-04-08)">
  <metadata
     id="metadata344">
    <rdf:RDF>
      <cc:Work
         rdf:about="">
        <dc:format>image/svg+xml</dc:format>
        <dc:type
           rdf:resource="http://purl.org/dc/dcmitype/StillImage" />
        <dc:title></dc:title>
      </cc:Work>
    </rdf:RDF>
  </metadata>
  <defs
     id="defs342">
    <linearGradient
       id="linearGradient6316"
       osb:paint="solid">
      <stop
         style="stop-color:#75ffff;stop-opacity:1;"
         offset="0"
         id="stop6314" />
    </linearGradient>
  </defs>
  <sodipodi:namedview
     pagecolor="#ffffff"
     bordercolor="#666666"
     borderopacity="1"
     objecttolerance="10"
     gridtolerance="10"
     guidetolerance="10"
     inkscape:pageopacity="0"
     inkscape:pageshadow="2"
     inkscape:window-width="1920"
     inkscape:window-height="1001"
     id="namedview340"
     showgrid="false"
     inkscape:zoom="2.0149385"
     inkscape:cx="183.82603"
     inkscape:cy="193.058"
     inkscape:window-x="-9"
     inkscape:window-y="-9"
     inkscape:window-maximized="1"
     inkscape:current-layer="g336" />
  <g
     transform="translate(-43.822,-43.449)"
     id="g336">
    <path
       d="M 428.606,248.638 252.713,424.531 a 17.15,17.15 0 0 1 -24.276,0 L 82.223,278.318 52.543,248.638 a 17.15,17.15 0 0 1 0,-24.276 L 71.114,205.789 228.436,48.466 a 17.192,17.192 0 0 1 24.276,0 l 157.323,157.323 18.571,18.573 a 17.188,17.188 0 0 1 0,24.276 z"
       transform="translate(3.951)"
       id="path178"
       inkscape:connector-curvature="0"
       style="fill:#ffffff" />
    <path
       d="m 417.359,230.953 a 6.335,6.335 0 0 1 -1.887,4.545 l -88.913,88.912 -86.981,87 a 6.47,6.47 0 0 1 -9.093,0 l -109.929,-109.923 -2.059,-2.059 -0.771,-0.773 -2.424,-2.424 -3.646,-3.644 -1.135,-1.137 -2.36,-2.358 L 54.569,235.5 a 6.42,6.42 0 0 1 0,-9.093 l 70.831,-70.836 6.07,-6.068 0.108,-0.108 h 0.021 l 0.3,-0.321 0.085,-0.085 0.793,-0.773 a 0.071,0.071 0 0 0 0.023,-0.044 l 0.534,-0.537 0.472,-0.47 0.215,-0.215 2.637,-2.637 12.03,-12.03 0.193,-0.193 11.6,-11.6 70,-70 a 6.475,6.475 0 0 1 9.093,0 l 70,70 11.6,11.6 0.172,0.17 12.054,12.054 a 0.02,0.02 0 0 0 0.021,0.021 l 2.6,2.617 0.686,0.686 0.557,0.537 c 0,0.023 0.023,0.023 0.023,0.044 l 0.75,0.729 0.149,0.149 0.28,0.28 v 0.021 l 0.108,0.108 76.9,76.9 a 6.378,6.378 0 0 1 1.885,4.547 z"
       id="path180"
       inkscape:connector-curvature="0"
       style="opacity:1;fill:#004a66;fill-opacity:0;stroke:#004a66;stroke-width:13.39999962;stroke-miterlimit:4.4000001;stroke-dasharray:none;stroke-opacity:1"
       transform="translate(9.495,5.547)" />
    <g
       transform="translate(203.087,102.564)"
       id="g238"
       style="fill:#ffffff;fill-opacity:1">
      <path
         d="m 66.838,36.860739 a 25.749,25.749 0 0 0 -36.352,-19.217 25.3,25.3 0 0 0 -8.654,6.629 25.723,25.723 0 1 0 45.006,12.588 z"
         id="path182"
         inkscape:connector-curvature="0"
         style="fill:#ffffff;fill-opacity:1" />
      <g
         transform="translate(34.093)"
         id="g188"
         style="fill:#ffffff;fill-opacity:1">
        <path
           d="m 143.407,83.07 v 0 a 0.926,0.926 0 0 1 -0.767,-1.059 l 1.483,-9.25 A 0.928,0.928 0 0 1 145.182,72 v 0 a 0.926,0.926 0 0 1 0.764,1.059 l -1.483,9.25 a 0.924,0.924 0 0 1 -1.056,0.761 z"
           transform="translate(-131.288,-71.983)"
           id="path184"
           inkscape:connector-curvature="0"
           style="fill:#ffffff;fill-opacity:1" />
        <path
           d="m 137.931,117.218 v 0 a 0.926,0.926 0 0 1 -0.764,-1.059 l 1.481,-9.25 a 0.929,0.929 0 0 1 1.059,-0.767 v 0 a 0.928,0.928 0 0 1 0.767,1.059 l -1.483,9.25 a 0.928,0.928 0 0 1 -1.06,0.767 z"
           transform="translate(-137.154,-35.386)"
           id="path186"
           inkscape:connector-curvature="0"
           style="fill:#ffffff;fill-opacity:1" />
      </g>
      <g
         transform="translate(32.849,0.219)"
         id="g194"
         style="fill:#ffffff;fill-opacity:1">
        <path
           d="m 139.423,83.121 v 0 a 0.926,0.926 0 0 1 -1.081,-0.733 l -1.771,-9.2 a 0.93,0.93 0 0 1 0.733,-1.084 v 0 a 0.927,0.927 0 0 1 1.081,0.733 l 1.769,9.2 a 0.926,0.926 0 0 1 -0.731,1.084 z"
           transform="translate(-136.554,-72.089)"
           id="path190"
           inkscape:connector-curvature="0"
           style="fill:#ffffff;fill-opacity:1" />
        <path
           d="m 145.958,117.081 v 0 a 0.927,0.927 0 0 1 -1.081,-0.733 l -1.771,-9.2 a 0.927,0.927 0 0 1 0.733,-1.081 v 0 a 0.924,0.924 0 0 1 1.081,0.731 l 1.769,9.2 a 0.926,0.926 0 0 1 -0.731,1.083 z"
           transform="translate(-129.55,-35.692)"
           id="path192"
           inkscape:connector-curvature="0"
           style="fill:#ffffff;fill-opacity:1" />
      </g>
      <g
         transform="translate(19.706,5.237)"
         id="g200"
         style="fill:#ffffff;fill-opacity:1">
        <path
           d="m 136.419,84.266 v 0 a 0.926,0.926 0 0 1 -1.268,-0.319 l -4.811,-8.038 a 0.926,0.926 0 0 1 0.319,-1.268 v 0 a 0.926,0.926 0 0 1 1.266,0.319 l 4.811,8.04 a 0.926,0.926 0 0 1 -0.317,1.266 z"
           transform="translate(-130.21,-74.511)"
           id="path196"
           inkscape:connector-curvature="0"
           style="fill:#ffffff;fill-opacity:1" />
        <path
           d="m 154.174,113.945 v 0 a 0.926,0.926 0 0 1 -1.268,-0.319 l -4.811,-8.038 a 0.93,0.93 0 0 1 0.319,-1.268 v 0 a 0.926,0.926 0 0 1 1.268,0.319 l 4.808,8.038 a 0.928,0.928 0 0 1 -0.316,1.268 z"
           transform="translate(-111.18,-42.705)"
           id="path198"
           inkscape:connector-curvature="0"
           style="fill:#ffffff;fill-opacity:1" />
      </g>
      <g
         transform="translate(9.072,14.448)"
         id="g206"
         style="fill:#ffffff;fill-opacity:1">
        <path
           d="m 133.985,86.372 v 0 a 0.928,0.928 0 0 1 -1.3,0.135 l -7.27,-5.911 a 0.928,0.928 0 0 1 -0.135,-1.3 v 0 a 0.93,0.93 0 0 1 1.3,-0.135 l 7.27,5.911 a 0.926,0.926 0 0 1 0.135,1.3 z"
           transform="translate(-125.077,-78.957)"
           id="path202"
           inkscape:connector-curvature="0"
           style="fill:#ffffff;fill-opacity:1" />
        <path
           d="m 160.821,108.186 v 0 a 0.928,0.928 0 0 1 -1.3,0.135 l -7.27,-5.911 a 0.928,0.928 0 0 1 -0.135,-1.3 v 0 a 0.928,0.928 0 0 1 1.3,-0.133 l 7.268,5.909 a 0.924,0.924 0 0 1 0.137,1.3 z"
           transform="translate(-96.316,-55.577)"
           id="path204"
           inkscape:connector-curvature="0"
           style="fill:#ffffff;fill-opacity:1" />
      </g>
      <g
         transform="translate(2.228,26.738)"
         id="g212"
         style="fill:#ffffff;fill-opacity:1">
        <path
           d="m 132.421,89.183 v 0 a 0.927,0.927 0 0 1 -1.175,0.57 l -8.852,-3.066 a 0.927,0.927 0 0 1 -0.57,-1.175 v 0 A 0.926,0.926 0 0 1 123,84.94 l 8.852,3.066 a 0.926,0.926 0 0 1 0.569,1.177 z"
           transform="translate(-121.774,-84.89)"
           id="path208"
           inkscape:connector-curvature="0"
           style="fill:#ffffff;fill-opacity:1" />
        <path
           d="m 165.1,100.5 v 0 a 0.928,0.928 0 0 1 -1.175,0.57 l -8.852,-3.066 a 0.927,0.927 0 0 1 -0.572,-1.175 v 0 a 0.929,0.929 0 0 1 1.177,-0.572 l 8.852,3.066 a 0.93,0.93 0 0 1 0.57,1.177 z"
           transform="translate(-86.752,-72.757)"
           id="path210"
           inkscape:connector-curvature="0"
           style="fill:#ffffff;fill-opacity:1" />
      </g>
      <g
         transform="translate(0,39.368)"
         id="g218"
         style="fill:#ffffff;fill-opacity:1">
        <path
           d="m 131.914,92.434 v 0 a 0.929,0.929 0 0 1 -0.909,0.938 l -9.368,0.145 a 0.926,0.926 0 0 1 -0.938,-0.907 v 0 a 0.928,0.928 0 0 1 0.909,-0.938 l 9.368,-0.147 a 0.929,0.929 0 0 1 0.938,0.909 z"
           transform="translate(-120.698,-90.409)"
           id="path214"
           inkscape:connector-curvature="0"
           style="fill:#ffffff;fill-opacity:1" />
        <path
           d="m 166.492,91.9 v 0 a 0.923,0.923 0 0 1 -0.909,0.936 l -9.366,0.147 a 0.928,0.928 0 0 1 -0.939,-0.909 v 0 a 0.928,0.928 0 0 1 0.909,-0.939 l 9.368,-0.145 a 0.924,0.924 0 0 1 0.937,0.91 z"
           transform="translate(-83.638,-90.986)"
           id="path216"
           inkscape:connector-curvature="0"
           style="fill:#ffffff;fill-opacity:1" />
      </g>
      <g
         transform="translate(2.659,25.553)"
         id="g224"
         style="fill:#ffffff;fill-opacity:1">
        <path
           d="m 132.521,97.244 v 0 a 0.929,0.929 0 0 1 -0.535,1.193 l -8.753,3.342 a 0.926,0.926 0 0 1 -1.191,-0.535 v 0 a 0.927,0.927 0 0 1 0.532,-1.193 l 8.753,-3.34 a 0.927,0.927 0 0 1 1.194,0.533 z"
           transform="translate(-121.982,-71.1)"
           id="path220"
           inkscape:connector-curvature="0"
           style="fill:#ffffff;fill-opacity:1" />
        <path
           d="m 164.831,84.911 v 0 A 0.929,0.929 0 0 1 164.3,86.1 l -8.751,3.34 a 0.927,0.927 0 0 1 -1.193,-0.532 v 0 a 0.929,0.929 0 0 1 0.534,-1.193 l 8.751,-3.34 a 0.927,0.927 0 0 1 1.19,0.536 z"
           transform="translate(-87.354,-84.318)"
           id="path222"
           inkscape:connector-curvature="0"
           style="fill:#ffffff;fill-opacity:1" />
      </g>
      <g
         transform="translate(9.883,13.481)"
         id="g230"
         style="fill:#ffffff;fill-opacity:1">
        <path
           d="m 134.171,101.448 v 0 a 0.926,0.926 0 0 1 -0.093,1.3 L 127,108.884 a 0.924,0.924 0 0 1 -1.3,-0.093 v 0 a 0.927,0.927 0 0 1 0.093,-1.3 l 7.081,-6.132 a 0.926,0.926 0 0 1 1.297,0.089 z"
           transform="translate(-125.469,-54.227)"
           id="path226"
           inkscape:connector-curvature="0"
           style="fill:#ffffff;fill-opacity:1" />
        <path
           d="m 160.315,78.808 v 0 a 0.928,0.928 0 0 1 -0.093,1.3 l -7.083,6.132 a 0.927,0.927 0 0 1 -1.3,-0.093 v 0 a 0.927,0.927 0 0 1 0.1,-1.3 l 7.081,-6.132 a 0.927,0.927 0 0 1 1.295,0.093 z"
           transform="translate(-97.45,-78.491)"
           id="path228"
           inkscape:connector-curvature="0"
           style="fill:#ffffff;fill-opacity:1" />
      </g>
      <g
         transform="translate(20.799,4.607)"
         id="g236"
         style="fill:#ffffff;fill-opacity:1">
        <path
           d="m 136.668,104.539 v 0 a 0.926,0.926 0 0 1 0.356,1.258 l -4.556,8.185 a 0.927,0.927 0 0 1 -1.258,0.356 v 0 a 0.924,0.924 0 0 1 -0.356,-1.255 l 4.556,-8.185 a 0.93,0.93 0 0 1 1.258,-0.359 z"
           transform="translate(-130.738,-41.824)"
           id="path232"
           inkscape:connector-curvature="0"
           style="fill:#ffffff;fill-opacity:1" />
        <path
           d="m 153.49,74.323 v 0 a 0.925,0.925 0 0 1 0.358,1.255 l -4.558,8.185 a 0.925,0.925 0 0 1 -1.255,0.358 v 0 a 0.927,0.927 0 0 1 -0.358,-1.255 l 4.558,-8.185 a 0.925,0.925 0 0 1 1.255,-0.358 z"
           transform="translate(-112.707,-74.207)"
           id="path234"
           inkscape:connector-curvature="0"
           style="fill:#ffffff;fill-opacity:1" />
      </g>
    </g>
    <path
       d="m 244.489,128.555 h -94.582 a 0.392,0.392 0 0 1 0.075,-0.025 l 8.465,-2.068 a 3.208,3.208 0 0 1 3.3,-3.033 c 0.037,0 0.07,0.008 0.108,0.01 a 6.047,6.047 0 0 1 9.76,-2.938 7.179,7.179 0 0 1 6.387,-1.409 6.928,6.928 0 0 1 0.872,0.288 8.244,8.244 0 0 1 0.553,-0.947 8.623,8.623 0 0 1 7.444,-3.816 9.12,9.12 0 0 1 0.959,0.087 l 0.058,-0.081 a 5.887,5.887 0 0 1 0.58,-0.661 6,6 0 0 1 4.444,-1.746 6.1,6.1 0 0 1 0.918,0.1 6.491,6.491 0 0 1 6.244,-8.886 6.67,6.67 0 0 1 1.181,0.149 7.892,7.892 0 0 1 7.34,-4.4 7.809,7.809 0 0 1 4.552,1.633 7.389,7.389 0 0 1 0.9,0.806 l 0.017,0.017 a 6.19,6.19 0 0 1 8.422,5.971 5.8,5.8 0 0 1 -0.058,0.661 v 0.019 a 6.866,6.866 0 0 1 0.8,-0.019 c 0.166,0 0.331,0.015 0.493,0.031 0.039,0 0.079,0.008 0.118,0.015 a 6.441,6.441 0 0 1 0.64,0.1 c 0.058,0.01 0.116,0.023 0.172,0.037 h 0.017 c 0.1,0.025 0.207,0.052 0.307,0.079 0.05,0.014 0.1,0.029 0.151,0.046 l 0.1,0.031 0.1,0.033 c 0.112,0.039 0.222,0.081 0.331,0.122 0.052,0.021 0.1,0.041 0.155,0.064 l 0.128,0.056 a 7.252,7.252 0 0 1 1.894,1.233 l 0.116,0.108 c 0.083,0.079 0.164,0.157 0.24,0.24 0.039,0.039 0.079,0.081 0.118,0.122 l 0.114,0.126 a 7.12,7.12 0 0 1 0.659,0.876 c 0.056,0.087 0.108,0.174 0.16,0.261 0.027,0.044 0.052,0.089 0.077,0.135 0.075,0.135 0.143,0.271 0.209,0.41 0.025,0.046 0.046,0.093 0.066,0.141 0.02,0.048 0.041,0.093 0.06,0.141 0.039,0.093 0.077,0.189 0.112,0.282 l 0.008,0.014 c 0.033,0.1 0.066,0.189 0.1,0.286 0.039,0.124 0.077,0.249 0.11,0.375 0.033,0.126 0.064,0.253 0.091,0.381 a 1.355,1.355 0 0 1 0.029,0.155 c 0.01,0.054 0.021,0.106 0.029,0.157 0.029,0.172 0.05,0.346 0.066,0.522 0.006,0.089 0.015,0.182 0.017,0.271 0,0.052 0.006,0.1 0.006,0.149 0,0.029 0,0.058 0,0.089 a 2.419,2.419 0 0 1 0,0.244 c 0,0.039 0,0.081 0,0.118 a 7.148,7.148 0 0 1 -0.769,3.018 l -0.008,0.017 -0.008,0.015 a 7.344,7.344 0 0 1 2.532,1.185 7.466,7.466 0 0 1 1.931,2.068 6.862,6.862 0 0 1 0.464,0.86 c 0.027,0.06 0.054,0.12 0.081,0.182 a 4.9,4.9 0 0 1 1.3,-0.133 c 0.093,0 0.184,0.008 0.276,0.019 0.068,0 0.141,0.012 0.207,0.023 0.066,0.011 0.153,0.021 0.228,0.035 h 0.025 c 0.075,0.012 0.147,0.029 0.217,0.046 0.12,0.027 0.24,0.06 0.356,0.1 0.077,0.025 0.153,0.05 0.228,0.077 v 0 c 0.056,0.021 0.11,0.044 0.164,0.064 l 0.073,0.031 0.025,0.01 0.025,0.01 h 0.01 0.008 l 0.01,0.006 0.079,0.037 c 0.031,0.012 0.062,0.029 0.093,0.044 l 0.085,0.044 0.056,0.031 0.11,0.06 0.139,0.083 0.046,0.029 c 0.05,0.031 0.1,0.064 0.147,0.1 l 0.031,0.021 0.012,0.008 0.048,0.035 0.058,0.041 0.056,0.043 0.012,0.008 0.112,0.089 h 0.006 c 0.039,0.033 0.081,0.066 0.116,0.1 l 0.06,0.054 0.052,0.046 0.023,0.025 0.058,0.054 0.046,0.046 q 0.115,0.112 0.218,0.23 l 0.019,0.021 0.008,0.01 c 0.037,0.046 0.077,0.091 0.114,0.139 l 0.012,0.014 c 0.033,0.041 0.066,0.083 0.1,0.126 l 0.029,0.037 c 0.025,0.037 0.052,0.073 0.075,0.11 0.023,0.037 0.037,0.054 0.056,0.083 a 0.972,0.972 0 0 1 0.062,0.1 c 0.031,0.048 0.06,0.1 0.089,0.143 l 0.014,0.027 a 1.076,1.076 0 0 1 0.052,0.1 0.876,0.876 0 0 1 0.052,0.1 l 0.031,0.058 v 0.008 c 0.027,0.054 0.054,0.11 0.079,0.166 l 0.021,0.046 c 0.021,0.05 0.041,0.1 0.06,0.145 l 0.017,0.039 c 0.008,0.021 0.017,0.044 0.025,0.066 l 0.035,0.1 0.023,0.073 a 0.737,0.737 0 0 1 0.027,0.081 l 0.014,0.046 0.019,0.068 0.017,0.062 0.01,0.041 c 0.01,0.033 0.019,0.066 0.027,0.1 l 0.01,0.048 c 0.012,0.044 0.021,0.091 0.031,0.137 0.01,0.046 0.023,0.12 0.031,0.182 h 0.01 a 2.353,2.353 0 0 1 1.813,0.945 z"
       transform="translate(113.693,59.719)"
       id="path240"
       inkscape:connector-curvature="0"
       style="fill:#ffffff" />
    <path
       d="m 85.682,128.555 h 94.582 a 0.47,0.47 0 0 0 -0.077,-0.025 l -8.463,-2.068 a 3.21,3.21 0 0 0 -3.3,-3.033 c -0.037,0 -0.073,0.008 -0.11,0.01 a 6.045,6.045 0 0 0 -9.758,-2.938 7.179,7.179 0 0 0 -6.387,-1.409 6.928,6.928 0 0 0 -0.872,0.288 8.647,8.647 0 0 0 -8,-4.763 9.031,9.031 0 0 0 -0.957,0.087 l -0.06,-0.081 a 6.084,6.084 0 0 0 -0.578,-0.661 6,6 0 0 0 -4.444,-1.746 6.069,6.069 0 0 0 -0.918,0.1 6.491,6.491 0 0 0 -6.246,-8.886 6.719,6.719 0 0 0 -1.181,0.149 7.89,7.89 0 0 0 -11.892,-2.772 7.713,7.713 0 0 0 -0.9,0.806 l -0.014,0.017 a 6.191,6.191 0 0 0 -8.424,5.971 c 0.008,0.224 0.029,0.443 0.058,0.661 v 0.019 a 6.891,6.891 0 0 0 -0.8,-0.019 c -0.164,0 -0.329,0.015 -0.491,0.031 -0.039,0 -0.081,0.008 -0.118,0.015 a 6.44,6.44 0 0 0 -0.64,0.1 q -0.087,0.016 -0.174,0.037 h -0.017 c -0.1,0.025 -0.205,0.052 -0.3,0.079 -0.052,0.014 -0.1,0.029 -0.151,0.046 l -0.1,0.031 -0.1,0.033 c -0.112,0.039 -0.222,0.081 -0.331,0.122 -0.052,0.021 -0.1,0.041 -0.155,0.064 l -0.128,0.056 a 7.252,7.252 0 0 0 -1.894,1.233 l -0.116,0.108 c -0.083,0.079 -0.164,0.157 -0.242,0.24 -0.039,0.039 -0.077,0.081 -0.116,0.122 l -0.114,0.126 a 7.353,7.353 0 0 0 -0.661,0.876 c -0.054,0.087 -0.106,0.174 -0.157,0.261 -0.027,0.044 -0.052,0.089 -0.077,0.135 q -0.112,0.2 -0.211,0.41 a 1.225,1.225 0 0 0 -0.064,0.141 l -0.062,0.141 c -0.039,0.093 -0.075,0.189 -0.112,0.282 l -0.006,0.014 c -0.033,0.1 -0.068,0.189 -0.1,0.286 -0.037,0.124 -0.075,0.249 -0.11,0.375 -0.035,0.126 -0.062,0.253 -0.089,0.381 q -0.019,0.078 -0.031,0.155 c -0.008,0.054 -0.019,0.106 -0.027,0.157 -0.029,0.172 -0.05,0.346 -0.066,0.522 -0.008,0.089 -0.015,0.182 -0.017,0.271 0,0.052 -0.006,0.1 -0.008,0.149 v 0.089 a 2.41,2.41 0 0 0 0,0.244 v 0.118 a 7.379,7.379 0 0 0 0.3,1.842 7.077,7.077 0 0 0 0.47,1.177 l 0.008,0.017 0.008,0.015 a 7.327,7.327 0 0 0 -2.532,1.185 7.436,7.436 0 0 0 -1.931,2.068 6.861,6.861 0 0 0 -0.464,0.86 c -0.027,0.06 -0.054,0.12 -0.081,0.182 a 4.905,4.905 0 0 0 -1.3,-0.133 c -0.091,0 -0.182,0.008 -0.273,0.019 -0.07,0 -0.141,0.012 -0.209,0.023 -0.068,0.011 -0.151,0.021 -0.226,0.035 h -0.027 c -0.073,0.012 -0.145,0.029 -0.215,0.046 -0.12,0.027 -0.24,0.06 -0.356,0.1 -0.077,0.025 -0.153,0.05 -0.228,0.077 v 0 l -0.162,0.064 -0.075,0.031 -0.025,0.01 -0.023,0.01 h -0.01 -0.008 l -0.01,0.006 -0.081,0.037 c -0.031,0.012 -0.06,0.029 -0.091,0.044 l -0.085,0.044 -0.056,0.031 -0.11,0.06 -0.139,0.083 -0.048,0.029 c -0.05,0.031 -0.1,0.064 -0.147,0.1 l -0.031,0.021 -0.01,0.008 -0.048,0.035 -0.06,0.041 -0.054,0.043 -0.012,0.008 -0.112,0.089 h -0.006 c -0.039,0.033 -0.081,0.066 -0.118,0.1 l -0.06,0.054 -0.05,0.046 -0.025,0.025 -0.056,0.054 -0.048,0.046 c -0.075,0.075 -0.147,0.151 -0.215,0.23 l -0.019,0.021 -0.01,0.01 c -0.037,0.046 -0.075,0.091 -0.112,0.139 l -0.012,0.014 c -0.033,0.041 -0.066,0.083 -0.1,0.126 l -0.027,0.037 c -0.025,0.037 -0.052,0.073 -0.077,0.11 -0.025,0.037 -0.037,0.054 -0.054,0.083 -0.017,0.029 -0.044,0.064 -0.064,0.1 -0.02,0.036 -0.06,0.1 -0.087,0.143 l -0.017,0.027 -0.052,0.1 c -0.017,0.031 -0.035,0.064 -0.05,0.1 l -0.031,0.058 v 0.008 c -0.029,0.054 -0.054,0.11 -0.079,0.166 l -0.021,0.046 c -0.021,0.05 -0.044,0.1 -0.06,0.145 l -0.017,0.039 a 0.363,0.363 0 0 0 -0.025,0.066 l -0.035,0.1 -0.025,0.073 q -0.012,0.037 -0.025,0.081 l -0.014,0.046 -0.019,0.068 -0.017,0.062 -0.012,0.041 c -0.008,0.033 -0.017,0.066 -0.025,0.1 l -0.012,0.048 c -0.01,0.044 -0.019,0.091 -0.029,0.137 -0.01,0.046 -0.023,0.12 -0.031,0.182 h -0.01 a 2.357,2.357 0 0 0 -1.815,0.945 z"
       transform="translate(44.862,59.719)"
       id="path242"
       inkscape:connector-curvature="0"
       style="fill:#ffffff" />
    <g
       transform="translate(93.976,95.501)"
       id="g286"
       style="fill:#ffffff;fill-opacity:1">
      <path
         d="m 114.754,97.168 -0.064,0.128 c -0.044,0.108 -0.128,0.28 -0.236,0.516 -0.064,0.149 -0.151,0.321 -0.236,0.535 q -0.385,0.87 -1.03,2.316 v 0.023 c -0.75,1.695 -1.736,3.924 -2.853,6.584 -4.653,11.044 -11.859,29.251 -15.654,44.755 -5.662,23.2 -5.877,55.329 -9.329,86.19 L 73.964,226.827 c 1.674,-14.711 4.655,-39.632 7.421,-58.139 2.917,-19.644 15.954,-47.5 23.483,-62.363 0.793,-1.587 1.543,-3.045 2.208,-4.311 0.6,-1.156 1.137,-2.165 1.587,-3 a 2.129,2.129 0 0 1 0.149,-0.3 c 0.023,-0.021 0.023,-0.041 0.043,-0.085 a 0.073,0.073 0 0 0 0.021,-0.044 c 0.064,-0.128 0.151,-0.257 0.215,-0.385 a 2.429,2.429 0 0 1 0.128,-0.236 V 97.92 c 0.644,-1.179 1.009,-1.821 1.009,-1.821 l 0.3,0.064 0.023,0.021 0.45,0.108 0.537,0.128 0.514,0.106 0.087,0.023 0.943,0.213 z"
         transform="translate(-61.672,-39.077)"
         id="path248"
         inkscape:connector-curvature="0"
         style="fill:#ffffff;fill-opacity:1" />
      <path
         d="M 90,100.951 A 4.893,4.893 0 1 0 95.662,96.973 4.891,4.891 0 0 0 90,100.951 Z"
         transform="translate(-44.566,-38.217)"
         id="path250"
         inkscape:connector-curvature="0"
         style="fill:#ffffff;fill-opacity:1" />
      <path
         d="m 87.447,100.532 a 4.448,4.448 0 1 0 5.148,-3.615 4.448,4.448 0 0 0 -5.148,3.615 z"
         transform="translate(-47.295,-38.27)"
         id="path252"
         inkscape:connector-curvature="0"
         style="fill:#ffffff;fill-opacity:1" />
      <path
         d="m 97.971,99.046 c 0,0 20.419,-15.919 37.059,-3.636 a 40.782,40.782 0 0 1 16.878,29.89 l -11.7,-8.25 2.244,-7.819 -4.2,6.112 -4.815,-3.526 1.229,-11.759 -3.878,10.417 -4.643,-2.747 1.8,-10.582 -3.12,9.911 -7.549,-2.6 -1.144,-8.72 -0.619,8.1 c 0,0 -10.605,-3.451 -19.246,-0.365 l -4.844,2.076 -0.369,-1.094 z"
         transform="translate(-43.362,-44.8)"
         id="path254"
         inkscape:connector-curvature="0"
         style="fill:#ffffff;fill-opacity:1" />
      <path
         d="m 117.025,110.241 c 0,0 0.729,-24.608 -17.5,-29.45 a 38.018,38.018 0 0 0 -31.49,5.587 l 12.536,3.638 4.6,-6.358 -2.271,6.769 5.256,1.419 8.094,-7.986 -5.647,9.126 4.578,1.761 6.911,-7.7 -5.689,8.266 6.06,3.986 7.123,-4.411 -5.7,5.333 c 0,0 8.359,5.722 10.771,13.936 l 1.1,4.813 1.015,-0.385 z"
         transform="translate(-68.031,-56.853)"
         id="path256"
         inkscape:connector-curvature="0"
         style="fill:#ffffff;fill-opacity:1" />
      <path
         d="m 131.935,85.287 3.94,4.949 a 72.141,72.141 0 0 0 -8.529,2.264 l -5.691,-6.52 4.038,7.083 q -1.9,0.668 -3.938,1.5 l -5.942,-5.03 4.7,5.544 q -1.445,0.609 -2.952,1.3 c -1.293,0.6 -2.53,1.2 -3.723,1.815 l -7.529,-3.526 6.35,4.135 c -12.049,6.362 -18.909,13.073 -20.891,15.171 l -0.114,0.07 -0.721,-0.512 c 0,0 18.1,-47.569 55.456,-24.223 a 36.615,36.615 0 0 0 -9.161,0.675 z"
         transform="translate(-43.488,-53.26)"
         id="path258"
         inkscape:connector-curvature="0"
         style="fill:#ffffff;fill-opacity:1" />
      <path
         d="m 98.123,77.8 -7.332,-0.056 a 65.944,65.944 0 0 1 3.5,8.4 l 9.99,0.483 -9.43,1.224 q 0.622,1.973 1.185,4.168 l 8.734,1.639 -8.4,-0.3 c 0.251,1.046 0.491,2.121 0.715,3.24 0.288,1.436 0.53,2.832 0.74,4.2 l 8.353,3.893 -8.152,-2.542 c 1.927,13.889 0.079,23.765 -0.607,26.721 l 0.008,0.139 0.965,0.263 c 0,0 33.34,-45.114 -13.684,-60.7 a 34.99,34.99 0 0 1 5.43,7.906 z"
         transform="translate(-50.162,-68.574)"
         id="path260"
         inkscape:connector-curvature="0"
         style="fill:#ffffff;fill-opacity:1" />
      <path
         d="m 110.86,98.053 c 4.583,2.192 7.63,10.727 8.589,19.913 l -3.551,-2.153 3.713,3.98 a 54.5,54.5 0 0 1 -0.265,11.046 l -1.715,-3.277 1.409,5.2 a 21.985,21.985 0 0 1 -3.172,8.515 71.683,71.683 0 0 1 -5.351,-5.946 l 2.834,-8.475 -3.951,7.044 a 38.574,38.574 0 0 1 -4.365,-7.042 l 6.217,-13.514 -6.913,11.738 a 67.573,67.573 0 0 1 -1.653,-9.109 l 4.949,-8.832 -5.324,6.534 a 32.879,32.879 0 0 0 -1.9,-6.992 l 2.1,-5.991 -2.911,4.331 a 9.568,9.568 0 0 0 -8.359,-5.246 l 0.089,-1.1 c 0,0 10.516,-4.937 19.53,-0.624 z"
         transform="translate(-43.156,-38.875)"
         id="path262"
         inkscape:connector-curvature="0"
         style="fill:#ffffff;fill-opacity:1" />
      <path
         d="m 99.3,92.114 c -5.548,-0.3 -12.957,6.281 -18.7,14.587 l 4.535,-0.2 -5.652,1.867 a 59.528,59.528 0 0 0 -5.55,10.736 l 3.369,-2.244 -4.083,4.249 c -1.187,3.6 -3.468,9.52 -3.151,12.354 a 76.107,76.107 0 0 1 9.975,-5.409 l 1.734,-9.619 0.089,8.834 a 42.2,42.2 0 0 0 7.887,-4.46 l 1.139,-16.23 0.462,14.894 a 74.34,74.34 0 0 0 6.373,-7.87 l -0.106,-11.073 1.672,9.066 a 36.155,36.155 0 0 1 5.5,-5.71 l 1.129,-6.851 0.52,5.683 a 10.466,10.466 0 0 1 10.775,-0.64 l 0.493,-1.1 c 0,0 -7.494,-10.265 -18.41,-10.864 z"
         transform="translate(-65.877,-43.356)"
         id="path264"
         inkscape:connector-curvature="0"
         style="fill:#ffffff;fill-opacity:1" />
      <g
         transform="translate(192.548)"
         id="g284"
         style="fill:#ffffff;fill-opacity:1">
        <path
           d="m 214.907,99.046 c 0,0 -20.419,-15.919 -37.057,-3.636 a 40.781,40.781 0 0 0 -16.878,29.89 l 11.7,-8.25 -2.246,-7.819 4.2,6.112 4.815,-3.526 -1.231,-11.759 3.88,10.417 4.643,-2.747 -1.8,-10.582 3.122,9.911 7.549,-2.6 1.144,-8.72 0.619,8.1 c 0,0 10.605,-3.451 19.246,-0.365 l 4.844,2.076 0.369,-1.094 z"
           transform="translate(-160.972,-44.8)"
           id="path266"
           inkscape:connector-curvature="0"
           style="fill:#ffffff;fill-opacity:1" />
        <path
           d="m 189.719,110.241 c 0,0 -0.731,-24.608 17.5,-29.45 a 38.018,38.018 0 0 1 31.49,5.587 l -12.534,3.638 -4.6,-6.358 2.264,6.768 -5.256,1.419 -8.094,-7.986 5.65,9.126 -4.581,1.761 -6.909,-7.7 5.687,8.266 -6.059,3.988 -7.125,-4.411 5.7,5.333 c 0,0 -8.359,5.722 -10.773,13.936 l -1.094,4.813 -1.017,-0.385 z"
           transform="translate(-130.167,-56.853)"
           id="path268"
           inkscape:connector-curvature="0"
           style="fill:#ffffff;fill-opacity:1" />
        <path
           d="m 178.149,85.287 -3.94,4.949 a 72.14,72.14 0 0 1 8.529,2.264 l 5.691,-6.52 -4.038,7.083 q 1.892,0.668 3.938,1.5 l 5.942,-5.03 -4.7,5.544 q 1.445,0.609 2.952,1.3 c 1.291,0.6 2.527,1.2 3.723,1.815 l 7.527,-3.526 -6.346,4.134 c 12.049,6.362 18.907,13.073 20.891,15.171 l 0.112,0.07 0.723,-0.512 c 0,0 -18.099,-47.565 -55.453,-24.219 a 36.617,36.617 0 0 1 9.161,0.675 z"
           transform="translate(-158.052,-53.26)"
           id="path270"
           inkscape:connector-curvature="0"
           style="fill:#ffffff;fill-opacity:1" />
        <path
           d="m 196.285,77.8 7.332,-0.056 a 65.637,65.637 0 0 0 -3.5,8.4 l -9.99,0.483 9.43,1.224 q -0.622,1.973 -1.185,4.168 l -8.734,1.639 8.4,-0.3 c -0.249,1.046 -0.489,2.121 -0.713,3.24 -0.288,1.436 -0.53,2.832 -0.74,4.2 l -8.353,3.893 8.152,-2.542 c -1.929,13.889 -0.079,23.765 0.6,26.721 l -0.006,0.139 -0.965,0.263 c 0,0 -33.342,-45.114 13.684,-60.7 a 34.99,34.99 0 0 0 -5.43,7.906 z"
           transform="translate(-135.7,-68.574)"
           id="path272"
           inkscape:connector-curvature="0"
           style="fill:#ffffff;fill-opacity:1" />
        <path
           d="m 185.3,98.053 c -4.585,2.192 -7.63,10.727 -8.589,19.913 l 3.549,-2.153 -3.71,3.98 a 54.347,54.347 0 0 0 0.265,11.046 l 1.715,-3.277 -1.409,5.2 a 21.985,21.985 0 0 0 3.172,8.515 71.679,71.679 0 0 0 5.351,-5.946 l -2.834,-8.475 3.953,7.044 a 38.572,38.572 0 0 0 4.365,-7.042 l -6.217,-13.514 6.913,11.738 a 67.9,67.9 0 0 0 1.653,-9.109 l -4.949,-8.832 5.322,6.534 a 33.126,33.126 0 0 1 1.9,-6.992 l -2.1,-5.991 2.915,4.328 a 9.567,9.567 0 0 1 8.357,-5.246 l -0.087,-1.1 c 0,0 -10.527,-4.934 -19.535,-0.621 z"
           transform="translate(-144.454,-38.875)"
           id="path274"
           inkscape:connector-curvature="0"
           style="fill:#ffffff;fill-opacity:1" />
        <path
           d="m 206.751,92.114 c 5.55,-0.3 12.957,6.281 18.7,14.587 l -4.535,-0.2 5.65,1.867 a 59.541,59.541 0 0 1 5.552,10.736 l -3.371,-2.244 4.085,4.249 c 1.187,3.6 3.468,9.52 3.151,12.354 a 76.108,76.108 0 0 0 -9.975,-5.409 l -1.734,-9.619 -0.091,8.834 a 42.262,42.262 0 0 1 -7.887,-4.46 l -1.137,-16.23 -0.464,14.894 a 74.351,74.351 0 0 1 -6.371,-7.87 l 0.106,-11.073 -1.672,9.066 a 36.156,36.156 0 0 0 -5.5,-5.71 l -1.129,-6.851 -0.522,5.683 a 10.463,10.463 0 0 0 -10.773,-0.64 l -0.5,-1.1 c 0,0 7.507,-10.265 18.417,-10.864 z"
           transform="translate(-131.635,-43.356)"
           id="path276"
           inkscape:connector-curvature="0"
           style="fill:#ffffff;fill-opacity:1" />
        <path
           d="m 228.537,226.806 -11.409,11.409 c -3.431,-30.86 -3.646,-62.987 -9.329,-86.19 -3.8,-15.5 -10.98,-33.711 -15.633,-44.755 -1.117,-2.66 -2.1,-4.889 -2.853,-6.584 v -0.023 q -0.643,-1.445 -1.03,-2.316 c -0.085,-0.213 -0.172,-0.385 -0.236,-0.535 -0.106,-0.236 -0.193,-0.408 -0.236,-0.516 l -0.064,-0.128 1.674,-0.408 0.922,-0.213 0.108,-0.023 0.47,-0.106 0.557,-0.128 0.452,-0.108 0.044,-0.021 0.3,-0.064 c 0,0 0.344,0.622 0.988,1.8 v 0.021 c 0.041,0.087 0.106,0.195 0.17,0.3 a 1.735,1.735 0 0 1 0.172,0.365 l 0.043,0.044 a 0.081,0.081 0 0 0 0.021,0.044 2.644,2.644 0 0 1 0.172,0.342 c 0.452,0.837 0.986,1.823 1.566,2.981 0.665,1.266 1.415,2.724 2.229,4.332 7.529,14.863 20.566,42.719 23.483,62.363 2.743,18.506 5.724,43.404 7.419,58.117 z"
           transform="translate(-132.277,-39.077)"
           id="path278"
           inkscape:connector-curvature="0"
           style="fill:#ffffff;fill-opacity:1" />
        <path
           d="m 196.461,100.951 a 4.893,4.893 0 1 1 -5.662,-3.978 4.891,4.891 0 0 1 5.662,3.978 z"
           transform="translate(-133.348,-38.217)"
           id="path280"
           inkscape:connector-curvature="0"
           style="fill:#ffffff;fill-opacity:1" />
        <path
           d="m 198.553,100.532 a 4.448,4.448 0 1 1 -5.148,-3.615 4.447,4.447 0 0 1 5.148,3.615 z"
           transform="translate(-130.16,-38.27)"
           id="path282"
           inkscape:connector-curvature="0"
           style="fill:#ffffff;fill-opacity:1" />
      </g>
    </g>
    <path
       style="fill:#ffffff;fill-opacity:1"
       d="M 17.597656,156.5957 C 7.8489182,156.5957 0,164.44267 0,174.19141 v 37.7207 c 0,9.74874 7.8489182,17.59766 17.597656,17.59766 H 383.80273 c 9.74874,0 17.59766,-7.84892 17.59766,-17.59766 v -37.7207 c 0,-9.74874 -7.84892,-17.59571 -17.59766,-17.59571 z m 72.88086,16.51953 a 29.449,29.449 0 0 1 13.992184,3.23438 l -3.76367,9.0625 a 22.888,22.888 0 0 0 -10.335936,-2.75586 c -3.657,0 -4.822266,1.06003 -4.822266,2.33203 0,4.452 20.511722,0.74202 20.511722,14.41602 0,6.784 -5.7793,12.50781 -17.2793,12.50781 -6.201,0 -12.454063,-1.53741 -16.164062,-3.81641 l 4.027343,-9.11523 a 25.453,25.453 0 0 0 12.244141,3.39062 c 3.551,0 4.822266,-0.74167 4.822266,-2.01367 0,-4.664 -20.511719,-0.90137 -20.511719,-14.73437 0,-6.89 5.779297,-12.50782 17.279297,-12.50782 z m 18.974604,0.84961 h 12.50196 v 20.03321 c 0,5.671 2.17387,7.79101 5.67187,7.79101 3.498,0 5.67188,-2.12001 5.67188,-7.79101 v -20.03321 h 12.29883 v 20.4043 c 0,11.13 -6.67227,17.54297 -18.07227,17.54297 -11.395,0 -18.07227,-6.41383 -18.07227,-17.54883 z m 41.86915,0 h 10.28125 l 12.08398,19.76758 11.76562,-19.76758 h 10.28321 l 0.10547,37.09961 h -11.39453 l -0.10547,-16.9082 -8.05664,13.56836 h -5.51172 l -8.05078,-12.98438 v 16.32422 h -11.40039 z m 50.5625,0 h 10.28125 l 12.08789,19.76758 11.76171,-19.76758 h 10.28321 l 0.10547,37.09961 h -11.39453 l -0.10743,-16.9082 -8.05468,13.56836 h -5.51172 l -8.05274,-12.98438 v 16.32422 h -11.39843 z m 50.56054,0 h 30.15821 v 9.4336 h -17.86133 v 4.3457 h 15.6875 v 9.00977 h -15.6875 v 4.87695 h 18.55078 v 9.43359 h -30.84766 z m 35.66797,0 h 17.86524 c 10.335,0 16.9082,5.40424 16.9082,13.99024 a 12.424,12.424 0 0 1 -7,11.66015 l 7.79101,11.44922 h -13.35742 l -6.30664,-9.32812 h -3.39258 v 9.32812 h -12.50781 z m 12.50781,9.64454 v 8.69335 h 4.5586 c 3.445,0 5.08789,-1.64765 5.08789,-4.34765 0,-2.703 -1.64289,-4.3457 -5.08789,-4.3457 z"
       transform="translate(43.822,43.449)"
       id="rect292"
       inkscape:connector-curvature="0" />
    <g
       transform="translate(165.45681,272.54264)"
       id="g302">
      <path
         d="m 54.953738,19.278224 a 1.213,1.213 0 0 0 -1.088215,-0.187755 c -0.313718,0.0455 -1.566783,0.0797 -2.146716,0.163808 a 1.991,1.991 0 0 0 -1.688678,1.28063 c -0.46425,0.881762 -5.217213,11.487752 -7.508387,16.605585 -4.473029,0.796246 -11.779378,1.954901 -13.906128,2.263341 2.605486,-5.681785 7.468169,-16.032883 7.708455,-16.758888 a 1.534,1.534 0 0 0 0.130171,-0.63526 C 36.4297,21.840456 36.320254,21.782564 36.131906,21.661342 35.820193,21.386233 35.37974,20.557874 34.292119,20.71561 a 4.806,4.806 0 0 0 -1.683679,0.639272 c -0.261261,0.239983 -5.975021,5.405545 -8.756917,5.809 -1.498324,0.2173 -2.893026,-0.04928 -2.969957,-0.579733 -0.03502,-0.241473 0.472668,-0.315103 0.441092,-0.532825 -0.02096,-0.144488 -0.259776,-0.258391 -0.549742,-0.216337 -1.667554,0.241843 -3.20098,1.575742 -2.955836,3.266058 0.301407,2.078258 2.650862,2.950073 4.967624,2.614076 a 11.277,11.277 0 0 0 6.70046,-3.636347 c -2.148521,4.234211 -4.554606,9.249475 -5.898987,12.228272 -0.507689,0.07363 -0.935111,0.18513 -1.370555,0.248282 -1.401339,0.203235 -3.50414,0.335412 -4.979808,0.499914 -0.197929,0.02871 -0.386754,-0.116699 -0.652968,-0.07809 -0.266215,0.03861 -0.541829,0.179627 -0.461597,0.732839 a 4.572,4.572 0 0 0 0.430642,1.269334 c 0.648959,1.583249 1.47175,1.982287 2.51365,2.003971 0.348937,0.02316 1.287635,-0.137231 2.527065,-0.265451 -1.459794,3.172366 -3.781052,7.776196 -5.148017,11.107887 a 11.211,11.211 0 0 0 -0.678158,2.639664 1.848,1.848 0 0 0 0.02878,0.365656 c 0.08066,0.556181 0.560615,0.80689 1.165289,0.719195 0.241474,-0.03502 0.148275,-0.169031 0.220519,-0.179509 0.07224,-0.01048 0.165444,0.123534 0.238677,0.112913 0.07323,-0.01062 0.317163,-0.02175 0.559626,-0.05691 0.628426,-0.09114 0.574979,-0.285481 0.744209,-0.310024 0.266215,-0.03861 0.264526,0.43049 0.815759,0.350546 a 2.167,2.167 0 0 0 0.355177,-0.101024 c 0.461993,-0.214529 4.023146,-9.513934 6.596066,-15.413298 1.739799,-0.252321 2.972384,-0.40683 5.198099,-0.729623 2.681942,-0.388958 6.128775,-0.938361 8.801229,-1.399707 -1.789899,4.156938 -5.24975,12.280631 -5.677451,13.923022 a 2.309,2.309 0 0 0 -0.09515,0.876734 c 0.08755,0.603684 0.578324,0.75481 1.327486,0.64616 a 9.1,9.1 0 0 0 1.322479,-0.377723 l 0.144488,-0.02096 c 0.16923,-0.02454 0.255738,-0.110853 0.400226,-0.131807 0.120737,-0.01751 0.300444,0.03019 0.397429,0.01613 0.266215,-0.03861 0.434653,-0.235827 0.627634,-0.263814 0.120737,-0.01751 0.276693,0.03363 0.348937,0.02316 0.217722,-0.03158 0.169224,-0.226635 0.206453,-0.276495 0.169224,-0.226635 4.62361,-10.98232 7.334525,-17.295777 2.689618,-6.286118 5.917314,-13.119126 8.145058,-18.005459 a 2.349,2.349 0 0 0 0.349808,-1.162244 0.643,0.643 0 0 0 -0.368045,-0.496314 z m 11.250097,17.018509 a 2.439,2.439 0 0 0 -2.855959,-2.169555 5.645,5.645 0 0 0 -0.814374,0.16762 l -0.02139,-0.147457 c -0.04205,-0.289967 -0.948354,-0.923446 -2.398186,-0.713179 -4.493984,0.651757 -13.016934,9.411729 -11.737963,18.230468 a 3.956,3.956 0 0 0 4.540301,3.436928 c 6.963008,-1.010847 13.995878,-13.92092 13.288002,-18.801856 z m -4.588792,1.356663 c 0.217722,-0.03158 0.363002,0.120143 0.4085,0.433861 0.140226,0.966884 -0.624242,3.52004 -2.798889,7.239673 -2.390786,4.096557 -5.05903,5.938594 -6.146651,6.096331 -0.652177,0.09458 -1.063276,-0.364162 -1.185848,-1.20932 -0.186516,-1.453276 0.418552,-4.08133 2.107851,-7.064679 a 16.85,16.85 0 0 1 6.421958,-6.580861 c 0.143527,0.989647 0.540902,1.179579 1.023849,1.109538 z m 24.418248,-22.48751 a 2.733,2.733 0 0 0 -3.28783,-2.088733 c -3.310368,0.480099 -7.070097,7.044689 -9.432302,11.679719 -3.053412,5.9933 -6.006474,16.413027 -5.035799,23.106005 0.451967,3.116397 2.251698,4.977354 5.46508,4.511321 a 12.6,12.6 0 0 0 7.921757,-5.241253 3.231,3.231 0 0 0 0.803131,-2.460749 l -0.07004,-0.482947 c -0.05612,-0.386952 -0.255766,-1.76355 -0.884191,-1.67241 -1.039129,0.150703 -3.651449,5.611178 -6.67185,6.049223 a 2.4,2.4 0 0 1 -2.95976,-2.035267 19.554,19.554 0 0 1 0.05052,-2.37585 c 3.44437,-5.164835 14.90663,-23.429082 14.100725,-28.985946 z m -3.793449,2.08202 c 0.378481,2.609697 -8.171032,18.160795 -10.113629,21.271821 a 50.622,50.622 0 0 1 2.391924,-8.680178 c 0.714564,-1.880024 6.146108,-12.732965 7.422752,-12.918116 0.197929,-0.0287 0.270965,0.133492 0.298953,0.326473 z m 10.374598,4.341918 a 1.3,1.3 0 0 0 -1.624881,-1.170909 4.442,4.442 0 0 0 -3.318414,4.674682 1.28,1.28 0 0 0 1.63177,1.218412 c 1.836081,-0.264263 3.569889,-2.933751 3.310535,-4.722042 z M 91.758537,43.25094 c -0.06301,-0.434455 -0.267267,-2.184255 -0.944186,-2.086082 -0.749162,0.10865 -3.206175,5.448586 -6.12959,5.872565 -0.603685,0.08755 -1.253065,0.0342 -1.351238,-0.642715 -0.168213,-1.159866 0.811575,-3.078355 1.251426,-4.128357 0.525423,-1.309976 4.310683,-10.764148 4.237054,-11.271837 a 2.342,2.342 0 0 0 -2.06903,-1.676395 c -2.078258,0.301407 -5.227442,4.951547 -5.171323,5.338498 0.08066,0.556182 1.14035,0.895602 1.220869,1.450794 0.05783,0.391756 -4.13633,8.893758 -3.786124,11.308495 a 4.632,4.632 0 0 0 4.996844,3.519254 10.606,10.606 0 0 0 7.747411,-6.624552 2.551,2.551 0 0 0 -0.0021,-1.059668 z M 116.99383,9.222674 a 0.962,0.962 0 0 0 -1.14035,-0.895602 4.115,4.115 0 0 0 -2.97411,1.788382 33.54,33.54 0 0 0 -1.89796,3.753268 c -1.46338,3.147625 -2.83165,6.330968 -4.16419,9.558641 -0.65618,1.599744 -1.21223,3.207194 -1.94022,4.820385 a 3.048,3.048 0 0 0 -1.94869,-0.679346 c -6.692974,0.970675 -14.880683,11.359394 -13.895943,18.149358 0.280308,1.932779 1.347794,3.677632 3.57054,3.35527 3.914051,-0.56765 7.626253,-5.941086 9.431063,-9.138228 a 13.3,13.3 0 0 0 -0.72445,5.21194 c 0.25232,1.739799 1.31484,2.941744 4.06902,2.542308 3.21338,-0.466033 6.36034,-4.964281 6.82594,-6.345405 a 2.589,2.589 0 0 0 -0.006,-1.060084 c -0.18917,-1.304354 -0.38413,-2.140024 -0.96406,-2.055917 a 0.849,0.849 0 0 0 -0.49987,0.294796 c -0.48614,0.56361 -3.21744,5.203668 -5.29471,5.504931 -0.55618,0.08066 -0.79446,-0.377885 -0.86794,-0.884584 l -0.0287,-0.19793 c -0.28706,-1.979292 3.80847,-13.035584 4.8246,-15.553496 2.35274,-5.891683 4.96088,-11.722391 7.49333,-17.566372 a 1.222,1.222 0 0 0 0.13293,-0.602315 z m -13.25989,21.51087 c -0.82183,1.649028 -1.72652,3.2353 -2.68315,4.804853 -0.87448,1.432341 -6.012049,9.407291 -7.606369,9.638514 -0.289967,0.04205 -0.383957,-0.264632 -0.419122,-0.507095 a 8.473,8.473 0 0 1 0.683158,-3.281022 c 1.751487,-4.595971 5.370939,-8.894971 10.025483,-10.65525 z m 28.56391,4.913172 a 0.507,0.507 0 0 0 -0.57428,-0.385567 0.849,0.849 0 0 0 -0.49987,0.294796 c -0.33786,0.394579 -3.12405,5.164861 -5.05683,5.44517 -0.60368,0.08755 -0.87797,-0.612327 -0.96567,-1.217001 a 2.657,2.657 0 0 1 -0.0259,-0.687395 c 0.16685,-4.465179 3.24503,-11.646332 3.55126,-12.084825 a 1.573,1.573 0 0 0 0.19135,-1.063474 c -0.12616,-0.869899 -1.00369,-1.137724 -2.01808,-0.990608 -0.98964,0.143527 -1.36323,0.298754 -1.98446,1.644855 -0.3819,-0.759047 -1.5251,-1.332908 -3.38761,-1.06279 -5.36389,0.777918 -13.34512,9.705878 -12.3044,16.881804 a 6.86,6.86 0 0 0 0.27421,1.194005 3.86,3.86 0 0 0 4.25135,2.761406 c 2.41573,-0.35035 5.93071,-3.697501 8.08375,-7.538286 a 5.724,5.724 0 0 0 -0.15011,2.365031 c 0.29438,2.029765 1.67377,3.876909 4.1855,3.512637 3.23713,-0.469478 6.36034,-4.964281 6.82593,-6.345405 a 2.589,2.589 0 0 0 -0.006,-1.060084 12.342,12.342 0 0 0 -0.38991,-1.664269 z M 124.0744,28.10593 c -1.03187,1.900781 -2.33495,4.481529 -3.22264,6.017843 -1.50669,2.535502 -6.31795,8.141087 -7.23634,8.27428 -0.33846,0.04909 -0.51452,-0.147681 -0.5705,-0.533643 -0.21027,-1.449832 1.33536,-5.423817 3.14192,-7.933087 3.17774,-4.4532 6.24446,-5.589118 7.88727,-5.827373 z m 15.68604,21.923615 a 102.313,102.313 0 0 1 11.8027,-14.391007 1.252,1.252 0 0 0 0.1123,-0.925702 c -0.19276,-1.329095 -0.55056,-2.263414 -1.082,-2.18634 a 0.849,0.849 0 0 0 -0.49986,0.294796 c -2.74654,3.329677 -6.02322,7.281889 -9.01334,10.652955 2.01375,-6.361896 7.46557,-19.116436 7.76059,-19.973655 a 2.171,2.171 0 0 0 0.19115,-0.890656 c -0.0421,-0.289966 -0.27729,-0.379127 -0.56785,-0.682566 -0.34608,-0.344898 -1.69613,-0.296629 -1.91287,-0.265197 -0.89068,0.129174 -1.63848,1.940256 -2.45738,3.637361 -2.76325,5.778429 -9.20997,13.547143 -10.49058,13.732868 -0.12073,0.01751 -0.20496,-0.01979 -0.22663,-0.169224 -0.22778,-1.570569 4.66222,-12.443996 4.44147,-13.966072 -0.16462,-1.135124 -1.64383,-1.636004 -2.10203,-1.569551 -0.91839,0.133193 -1.3951,3.137721 -3.15825,6.970464 -2.34167,6.309419 -3.47561,7.165028 -3.24701,10.782674 a 1.5,1.5 0 0 0 0.0253,0.341904 2.582,2.582 0 0 0 1.18089,2.004261 3.591,3.591 0 0 0 2.00121,0.372631 l 0.17121,-0.02483 c 2.66364,-0.68237 5.16982,-3.983251 7.26011,-7.072246 -1.59618,4.475432 -2.31634,6.651322 -2.63949,7.31457 -0.42279,0.826237 -3.51702,3.988079 -4.9891,8.099935 a 8.148,8.148 0 0 0 -0.50285,3.674215 2.025,2.025 0 0 0 2.54869,1.925125 c 0.21772,-0.03158 0.43101,-0.08676 0.66989,-0.146666 2.58097,-0.715852 4.29521,-6.934274 4.7237,-7.540047 z"
         id="path300"
         inkscape:connector-curvature="0"
         style="fill:#ffffff;fill-opacity:1" />
    </g>
    <g
       transform="translate(114.471,261.724)"
       id="g320"
       style="stroke:#ffffff;stroke-opacity:1">
      <path
         d="m 79.457,162.78 a 51,51 0 0 1 4.011,7.483 l -2.36,-2.358 -2.016,-2.018 a 15.2,15.2 0 0 1 -1.158,-4.032 c 0.129,-0.406 0.686,0.023 1.523,0.925 z"
         transform="translate(-77.924,-134.991)"
         id="path304"
         inkscape:connector-curvature="0"
         style="fill:#004a66;stroke:#ffffff;stroke-opacity:1" />
      <path
         d="m 92,169.575 c 0,0 0.922,0.087 -3.217,1.844 a 9.3,9.3 0 0 1 -2.273,0.624 l -2.059,-2.059 a 22.023,22.023 0 0 0 4.032,-0.365 7.754,7.754 0 0 1 3.517,-0.044 z"
         transform="translate(-70.93,-126.733)"
         id="path306"
         inkscape:connector-curvature="0"
         style="fill:#004a66;stroke:#ffffff;stroke-opacity:1" />
      <path
         d="m 94.277,167.357 c 0.771,-0.023 1.543,0.321 1.158,0.6 -0.387,0.257 -2.252,1.05 -3.69,1.651 a 45.153,45.153 0 0 1 -6.712,1.759 1.287,1.287 0 0 1 -0.278,0.041 L 83.446,170.1 a 25.1,25.1 0 0 0 4.717,-1.009 37.481,37.481 0 0 1 6.114,-1.734 z"
         transform="translate(-72.006,-128.932)"
         id="path308"
         inkscape:connector-curvature="0"
         style="fill:#004a66;stroke:#ffffff;stroke-opacity:1" />
      <path
         d="m 97.037,172.135 c 0.342,-0.064 3.259,-1.651 3.9,-2.016 0.665,-0.365 3.431,-1.887 4.91,-2.486 1.479,-0.599 5.1,-1.887 5.1,-1.523 0,0.406 -1.867,1.865 -2.7,2.509 a 12.789,12.789 0 0 1 -3,1.8 c -1.436,0.624 -6.112,2.9 -7.334,3.389 a 25.16,25.16 0 0 0 -3.816,1.608 c -0.472,0.452 -0.215,0.6 0.321,0.6 a 22.125,22.125 0 0 0 4.4,-1.823 c 1.266,-0.665 3.988,-1.608 6.132,-2.573 a 16.993,16.993 0 0 1 5.49,-1.115 c 0.323,0.021 -0.686,1.007 -2.358,1.887 a 60.9,60.9 0 0 1 -7.292,3 c -1.243,0.342 -4.933,1.78 -6.284,2.208 -1.351,0.428 -2.4,1.073 -2.1,1.307 0.3,0.259 1.564,-0.363 2.722,-0.793 1.158,-0.45 5.449,-1.844 8.171,-3.066 2.722,-1.222 5.1,-1.115 4.74,-0.665 a 15.663,15.663 0 0 1 -4.59,2.617 41.284,41.284 0 0 1 -6.54,2.167 42.774,42.774 0 0 0 -4.976,1.608 c -0.773,0.321 -0.814,0.493 -0.149,0.686 0.665,0.215 3.559,-0.642 4.481,-1.007 0.945,-0.365 2.445,-1.009 4.419,-1.952 1.993,-0.965 5.318,-0.922 5.125,-0.6 a 12.756,12.756 0 0 1 -4.547,2.917 71.4,71.4 0 0 1 -9.671,2.853 c -1.653,0.234 -2.231,0.578 -2.211,0.963 0,0.387 1.05,0.128 2.339,-0.149 a 56.564,56.564 0 0 0 5.683,-1.674 41.819,41.819 0 0 1 6.348,-1.456 c 0.835,-0.131 0.385,0.321 0.385,0.321 -2.08,1.952 -12.246,5.167 -13.682,5.362 -1.436,0.195 -2.552,0.47 -2.08,0.6 0.45,0.149 4.761,-0.858 8.492,-2.275 3.752,-1.415 4.7,-0.578 4.846,-0.472 0.151,0.13 -1.351,1.094 -2.316,1.5 a 84.5,84.5 0 0 1 -8.384,2.488 11.294,11.294 0 0 1 -3.667,-0.023 L 83.7,185.218 c -0.706,-1.438 -1.608,-3.346 -2.445,-4.953 -1.479,-2.9 -2.637,-6.971 -2.465,-7.549 0.149,-0.58 0.665,0.021 0.665,0.021 2.016,2 6.325,12.975 6.561,13.189 0.236,0.214 0.665,-0.234 0.58,-0.878 a 69.007,69.007 0 0 0 -4.527,-8.877 c -1.8,-3 -2.186,-6.155 -2.016,-6.414 0.172,-0.234 0.624,0.172 0.624,0.172 2.915,2.6 5.49,10.187 5.875,11 0.385,0.813 1.179,2.337 1.436,2.057 0.259,-0.3 -0.149,-1.479 -0.578,-2.617 -0.429,-1.115 -2.036,-4.653 -3.667,-8.148 -1.63,-3.474 -1.823,-6.155 -1.566,-6.155 0.28,0 1.181,1.03 1.181,1.03 2.036,2 4.288,8.705 4.481,10.315 0.193,1.587 1.5,3.538 1.8,2.766 0.3,-0.793 -0.385,-3.023 -1.715,-5.275 a 40.65,40.65 0 0 1 -3.8,-10.423 c -0.45,-2.724 -0.064,-2.059 -0.064,-2.059 2.445,1.78 3.217,4.119 4.268,6.777 1.051,2.658 2.167,8.127 2.424,8.214 0.278,0.085 0.771,-1.115 0.686,-1.566 -0.064,-0.47 -1.33,-3.988 -2.424,-7.419 -1.094,-3.454 -1.436,-9.5 -1.222,-9.781 0.193,-0.257 0.215,-0.021 0.215,-0.021 2.617,3.518 4.375,15.356 4.44,15.849 0.065,0.493 0.47,0.041 0.535,-0.472 0.064,-0.537 -0.429,-2.3 -1.243,-5.447 a 115.555,115.555 0 0 1 -2.188,-12.526 c 0.085,-0.514 0.257,-0.149 0.257,-0.149 2.809,2.789 4.032,12.588 4.375,14.369 0.321,1.757 0.729,0.128 0.858,-0.516 0.108,-0.642 -0.642,-7.185 -0.943,-9.37 -0.323,-2.188 -0.988,-9.5 0.213,-8.836 1.2,0.686 2.036,4.933 1.972,7.054 -0.041,2.144 -0.193,7.249 0.108,8.3 0.3,1.03 0.945,0.236 0.686,-0.793 -0.234,-1.007 -0.234,-9.093 -0.17,-11.365 a 15.716,15.716 0 0 1 0.771,-4.782 c 0.151,-0.023 0.257,0.406 0.257,0.406 a 68.572,68.572 0 0 1 0.344,13.124 c -0.108,1.03 0.128,0.773 0.58,-0.17 a 16.365,16.365 0 0 0 0.922,-5.169 c 0.064,-1.844 0.814,-7.527 1.007,-8.515 0.193,-0.988 0.472,-0.793 0.472,-0.793 0.9,0.988 0.193,7.871 0.193,7.871 0.537,-1.158 3.561,-7.527 4.483,-7.634 a 0.158,0.158 0 0 1 0.128,0.044 c 0.706,0.578 -2.424,7.527 -2.768,8.32 1.222,-1.715 5.983,-5.96 6.091,-5.618 0.108,0.342 -2.573,4.825 -4.181,6.735 -1.587,1.908 -4.054,4.052 -4.8,4.954 -0.75,0.878 -0.514,1.179 -0.108,0.922 0.406,-0.257 3.261,-2.96 5.082,-4.717 1.823,-1.717 6.2,-5.061 5.855,-4.011 -0.345,1.05 -3.323,4.44 -4.738,5.811 -1.438,1.374 -3.068,2.08 -4.889,3.6 a 11.8,11.8 0 0 0 -3.045,3.495 c -0.064,0.344 1.307,-0.729 2.188,-1.415 0.878,-0.665 3.066,-1.736 5.488,-3.323 2.424,-1.566 6.5,-2.7 6.178,-2.016 a 10.142,10.142 0 0 1 -3.045,2.7 c -1.351,0.9 -4.288,2.617 -5.79,3.41 -1.5,0.773 -4.848,2.617 -5.834,3.153 -0.991,0.517 -1.076,1.096 -0.711,1.031 z"
         transform="translate(-77.017,-148.809)"
         id="path310"
         inkscape:connector-curvature="0"
         style="fill:#004a66;stroke:#ffffff;stroke-opacity:1" />
      <path
         d="m 196.857,169.619 a 21.891,21.891 0 0 0 4.032,0.365 l -2.057,2.059 a 9.312,9.312 0 0 1 -2.275,-0.624 c -4.137,-1.757 -3.215,-1.844 -3.215,-1.844 a 7.743,7.743 0 0 1 3.515,0.044 z"
         transform="translate(45.678,-126.733)"
         id="path312"
         inkscape:connector-curvature="0"
         style="fill:#004a66;stroke:#ffffff;stroke-opacity:1" />
      <path
         d="m 199.48,169.093 a 25.1,25.1 0 0 0 4.72,1.007 l -1.307,1.307 a 1.325,1.325 0 0 1 -0.28,-0.041 45.153,45.153 0 0 1 -6.712,-1.759 c -1.436,-0.6 -3.3,-1.394 -3.688,-1.651 -0.385,-0.28 0.385,-0.624 1.158,-0.6 a 37.413,37.413 0 0 1 6.109,1.737 z"
         transform="translate(44.449,-128.932)"
         id="path314"
         inkscape:connector-curvature="0"
         style="fill:#004a66;stroke:#ffffff;stroke-opacity:1" />
      <path
         d="m 217.551,180.264 c -0.837,1.608 -1.738,3.516 -2.445,4.953 l -3.646,3.644 a 11.3,11.3 0 0 1 -3.667,0.023 84.559,84.559 0 0 1 -8.386,-2.488 c -0.965,-0.408 -2.465,-1.371 -2.316,-1.5 0.151,-0.106 1.094,-0.943 4.848,0.472 3.731,1.417 8.042,2.424 8.492,2.275 0.472,-0.13 -0.644,-0.408 -2.08,-0.6 -1.436,-0.192 -11.6,-3.41 -13.682,-5.362 0,0 -0.452,-0.452 0.385,-0.321 a 41.874,41.874 0 0 1 6.348,1.456 56.407,56.407 0 0 0 5.683,1.674 c 1.287,0.278 2.337,0.537 2.337,0.149 0.023,-0.385 -0.557,-0.729 -2.208,-0.963 a 71.314,71.314 0 0 1 -9.671,-2.853 12.734,12.734 0 0 1 -4.547,-2.917 c -0.193,-0.321 3.13,-0.365 5.125,0.6 1.974,0.943 3.474,1.587 4.419,1.952 0.922,0.365 3.816,1.222 4.481,1.007 0.665,-0.193 0.622,-0.365 -0.149,-0.686 a 42.913,42.913 0 0 0 -4.976,-1.608 41.285,41.285 0 0 1 -6.54,-2.167 15.631,15.631 0 0 1 -4.589,-2.617 c -0.365,-0.45 2.016,-0.557 4.738,0.665 2.722,1.222 7.013,2.617 8.171,3.066 1.158,0.431 2.424,1.052 2.724,0.793 0.3,-0.234 -0.75,-0.878 -2.1,-1.307 -1.35,-0.429 -5.038,-1.867 -6.284,-2.208 a 61.025,61.025 0 0 1 -7.29,-3 c -1.672,-0.88 -2.681,-1.867 -2.36,-1.887 a 16.984,16.984 0 0 1 5.49,1.115 c 2.144,0.965 4.869,1.908 6.134,2.573 a 22.076,22.076 0 0 0 4.4,1.823 c 0.537,0 0.793,-0.149 0.321,-0.6 a 25.158,25.158 0 0 0 -3.816,-1.608 c -1.224,-0.493 -5.9,-2.766 -7.336,-3.389 a 12.813,12.813 0 0 1 -3,-1.8 c -0.837,-0.644 -2.7,-2.1 -2.7,-2.509 0,-0.365 3.623,0.922 5.1,1.523 1.477,0.601 4.247,2.121 4.912,2.486 0.644,0.365 3.559,1.952 3.9,2.016 0.365,0.064 0.278,-0.514 -0.709,-1.028 -0.986,-0.537 -4.332,-2.38 -5.832,-3.153 -1.5,-0.793 -4.44,-2.509 -5.79,-3.41 a 10.089,10.089 0 0 1 -3.045,-2.7 c -0.321,-0.686 3.752,0.45 6.176,2.016 2.424,1.587 4.612,2.658 5.49,3.323 0.88,0.686 2.252,1.759 2.188,1.415 A 11.8,11.8 0 0 0 197.2,165.1 c -1.823,-1.523 -3.454,-2.229 -4.889,-3.6 -1.415,-1.371 -4.4,-4.761 -4.74,-5.811 -0.34,-1.05 4.032,2.293 5.855,4.011 1.823,1.757 4.676,4.46 5.084,4.717 0.408,0.257 0.642,-0.043 -0.108,-0.922 -0.752,-0.9 -3.217,-3.045 -4.8,-4.954 -1.608,-1.91 -4.288,-6.391 -4.181,-6.735 0.107,-0.344 4.866,3.9 6.089,5.618 -0.342,-0.793 -3.474,-7.742 -2.766,-8.32 a 0.156,0.156 0 0 1 0.128,-0.044 c 0.922,0.108 3.947,6.476 4.483,7.634 0,0 -0.709,-6.882 0.193,-7.871 0,0 0.278,-0.193 0.47,0.793 0.192,0.986 0.965,6.671 1.009,8.515 a 16.306,16.306 0 0 0 0.922,5.169 c 0.45,0.943 0.686,1.2 0.58,0.17 a 68.516,68.516 0 0 1 0.342,-13.124 c 0,0 0.108,-0.429 0.257,-0.406 a 15.617,15.617 0 0 1 0.773,4.782 c 0.064,2.273 0.064,10.359 -0.172,11.365 -0.257,1.03 0.387,1.823 0.688,0.793 0.3,-1.05 0.149,-6.155 0.106,-8.3 -0.064,-2.121 0.773,-6.368 1.974,-7.054 1.2,-0.665 0.535,6.648 0.213,8.836 -0.3,2.186 -1.05,8.728 -0.943,9.37 0.128,0.644 0.534,2.273 0.878,0.516 0.321,-1.782 1.543,-11.581 4.353,-14.369 0,0 0.172,-0.365 0.259,0.149 a 116.073,116.073 0 0 1 -2.188,12.526 c -0.816,3.151 -1.309,4.91 -1.245,5.447 0.064,0.514 0.472,0.965 0.537,0.472 0.065,-0.493 1.823,-12.331 4.44,-15.849 0,0 0.021,-0.236 0.236,0.021 a 34.853,34.853 0 0 1 -1.245,9.781 c -1.094,3.431 -2.358,6.949 -2.422,7.419 -0.087,0.452 0.406,1.651 0.686,1.566 0.257,-0.087 1.371,-5.554 2.424,-8.214 1.053,-2.66 1.823,-5 4.268,-6.777 0,0 0.385,-0.665 -0.066,2.059 a 40.572,40.572 0 0 1 -3.8,10.423 c -1.33,2.252 -2.016,4.481 -1.715,5.275 0.3,0.773 1.61,-1.179 1.8,-2.766 0.193,-1.61 2.445,-8.32 4.481,-10.315 0,0 0.9,-1.03 1.179,-1.03 0.259,0 0.066,2.681 -1.564,6.155 -1.63,3.495 -3.238,7.033 -3.667,8.148 -0.429,1.137 -0.837,2.316 -0.58,2.617 0.257,0.28 1.05,-1.243 1.438,-2.057 0.388,-0.814 2.958,-8.407 5.875,-11 0,0 0.45,-0.406 0.622,-0.172 0.172,0.259 -0.213,3.41 -2.016,6.414 a 69.2,69.2 0 0 0 -4.525,8.877 c -0.085,0.644 0.344,1.094 0.58,0.878 0.236,-0.216 4.545,-11.194 6.561,-13.189 0,0 0.516,-0.6 0.665,-0.021 0.172,0.577 -0.986,4.652 -2.465,7.548 z"
         transform="translate(38.303,-148.809)"
         id="path316"
         inkscape:connector-curvature="0"
         style="fill:#004a66;stroke:#ffffff;stroke-opacity:1" />
      <path
         d="m 205.165,165.887 -4.375,4.375 a 51.005,51.005 0 0 1 4.011,-7.483 c 0.837,-0.9 1.394,-1.33 1.523,-0.924 a 15.284,15.284 0 0 1 -1.159,4.032 z"
         transform="translate(53.754,-134.991)"
         id="path318"
         inkscape:connector-curvature="0"
         style="fill:#004a66;stroke:#ffffff;stroke-opacity:1" />
    </g>
    <g
       transform="translate(70.653,221.765)"
       id="g334"
       style="fill:#004a66;fill-opacity:1">
      <g
         transform="translate(0,0.002)"
         id="g328"
         style="fill:#004a66;fill-opacity:1">
        <path
           d="m 72,158.988 a 21.867,21.867 0 0 1 -3.789,-0.4 13.7,13.7 0 0 1 -9.3,-6.766 14.632,14.632 0 0 1 13.589,-22.267 1.074,1.074 0 0 1 -0.155,2.142 12.485,12.485 0 0 0 -11.581,19.041 11.566,11.566 0 0 0 7.825,5.737 23.193,23.193 0 0 0 3.507,0.369 11.233,11.233 0 0 0 7.9,-3.367 12.9,12.9 0 0 0 2.7,-12.076 7.862,7.862 0 0 0 -5.938,-5.764 10,10 0 0 0 -9.393,3.335 7.993,7.993 0 0 0 -2.092,4.906 c -0.079,2.969 2.983,6.1 6.066,6.209 a 5.177,5.177 0 0 0 5.507,-4.479 3.667,3.667 0 0 0 -1.09,-3.677 2.927,2.927 0 0 0 -0.474,-0.257 4.069,4.069 0 0 0 -4.181,0.924 1.272,1.272 0 0 0 -0.334,1.1 1.212,1.212 0 0 0 0.918,0.791 1.515,1.515 0 0 0 0.883,-0.075 1.0719283,1.0719283 0 1 1 0.8,1.989 3.725,3.725 0 0 1 -2.13,0.184 3.325,3.325 0 0 1 -2.544,-2.347 3.391,3.391 0 0 1 0.818,-3.081 6.138,6.138 0 0 1 6.623,-1.456 5,5 0 0 1 0.835,0.454 5.68,5.68 0 0 1 1.983,5.855 7.363,7.363 0 0 1 -7.684,6.217 c -4.295,-0.149 -8.248,-4.237 -8.138,-8.411 a 10.141,10.141 0 0 1 2.615,-6.25 12.029,12.029 0 0 1 11.477,-4.027 9.926,9.926 0 0 1 7.531,7.243 14.956,14.956 0 0 1 -3.222,14.189 13.4,13.4 0 0 1 -9.412,4.013 z"
           transform="translate(-56.773,-129.522)"
           id="path326"
           inkscape:connector-curvature="0"
           style="fill:#004a66;fill-opacity:1" />
      </g>
      <g
         transform="translate(319.171)"
         id="g332"
         style="fill:#004a66;fill-opacity:1">
        <path
           d="m 224.172,158.99 h -0.114 a 13.386,13.386 0 0 1 -9.41,-4.013 14.955,14.955 0 0 1 -3.222,-14.189 9.926,9.926 0 0 1 7.531,-7.243 12.03,12.03 0 0 1 11.477,4.027 10.143,10.143 0 0 1 2.615,6.25 c 0.11,4.174 -3.845,8.262 -8.138,8.411 a 7.351,7.351 0 0 1 -7.684,-6.217 5.673,5.673 0 0 1 1.987,-5.857 5.082,5.082 0 0 1 0.829,-0.452 6.152,6.152 0 0 1 6.625,1.454 3.392,3.392 0 0 1 0.816,3.085 3.327,3.327 0 0 1 -2.54,2.345 3.736,3.736 0 0 1 -2.134,-0.184 1.072,1.072 0 1 1 0.8,-1.989 1.537,1.537 0 0 0 0.885,0.075 1.207,1.207 0 0 0 0.914,-0.789 1.272,1.272 0 0 0 -0.331,-1.1 4.071,4.071 0 0 0 -4.183,-0.924 2.93,2.93 0 0 0 -0.468,0.255 3.661,3.661 0 0 0 -1.094,3.679 5.153,5.153 0 0 0 5.507,4.479 c 3.083,-0.106 6.143,-3.24 6.066,-6.209 a 8.012,8.012 0 0 0 -2.092,-4.906 9.993,9.993 0 0 0 -9.4,-3.335 7.862,7.862 0 0 0 -5.936,5.764 12.9,12.9 0 0 0 2.7,12.076 11.233,11.233 0 0 0 7.9,3.367 24.109,24.109 0 0 0 3.507,-0.369 11.568,11.568 0 0 0 7.823,-5.737 12.485,12.485 0 0 0 -11.578,-19.044 1.074,1.074 0 0 1 -0.155,-2.142 14.631,14.631 0 0 1 13.588,22.263 13.7,13.7 0 0 1 -9.3,6.768 21.911,21.911 0 0 1 -3.791,0.401 z"
           transform="translate(-210.834,-129.521)"
           id="path330"
           inkscape:connector-curvature="0"
           style="fill:#004a66;fill-opacity:1" />
      </g>
    </g>
  </g>
</svg>
